<?xml version="1.0" encoding="UTF-8"?>
<svg width="314px" height="288px" viewBox="0 0 314 288" version="1.1" xmlns="http://www.w3.org/2000/svg" xmlns:xlink="http://www.w3.org/1999/xlink">
    <!-- Generator: Sketch 52.4 (67378) - http://www.bohemiancoding.com/sketch -->
    <title>Path Copy</title>
    <desc>Created with Sketch.</desc>
    <g id="Page-1" stroke="none" stroke-width="1" fill="none" fill-rule="evenodd" opacity="0.1">
        <g id="Desktop" transform="translate(-710.000000, -794.000000)" fill="#34569A">
            <g id="Group" transform="translate(60.000000, 16.000000)">
                <path d="M891.393198,816.440437 C861.907811,821.327887 832.376998,818.697446 803.94879,815.053403 C775.520582,811.40936 747.158448,806.755818 717.611117,807.666829 C698.614929,808.257755 677.483735,811.967457 664.339199,823.350988 C651.694345,834.303635 649.885578,849.277861 650.005336,862.819913 C650.096187,873.005178 651.058386,883.555667 658.000253,891.746557 C662.819504,897.430115 670.186721,901.558389 675.757559,906.815167 C695.166708,925.109248 689.661943,953.449069 677.372235,977.447227 C671.590787,988.707648 664.525031,999.758783 660.647331,1011.30236 C656.769631,1022.84593 656.385577,1035.28 663.686721,1044.8374 C670.93005,1054.31273 684.784878,1059.77059 699.201333,1062.69649 C728.47611,1068.63448 760.967851,1065.56905 792.394153,1061.30536 C861.953237,1051.82182 930.735955,1036.48237 999.320453,1021.17164 C1024.70514,1015.5086 1050.20133,1009.81273 1074.62382,1001.47411 C1088.18545,996.853397 1101.98246,991.038522 1110.66702,981.842238 C1121.68894,970.167348 1121.78805,954.052306 1110.89828,944.277407 C1092.6289,927.862799 1051.75819,930.948745 1037.55647,912.268921 C1029.735,902.009791 1032.91893,888.213312 1038.89447,876.08702 C1051.69625,850.069866 1076.7836,824.524632 1073.1702,798.380265 C1070.69243,780.422683 1053.19116,765.386902 1029.94148,761.229902 C1005.57681,756.875927 974.435446,764.147599 960.654951,782.002589 C946.465625,800.436194 917.426235,812.131603 891.393198,816.440437 Z" id="Path-Copy"></path>
            </g>
        </g>
    </g>
</svg>