<?xml version="1.0" encoding="UTF-8"?>
<svg width="53px" height="56px" viewBox="0 0 53 56" version="1.1" xmlns="http://www.w3.org/2000/svg" xmlns:xlink="http://www.w3.org/1999/xlink">
    <!-- Generator: Sketch 52.4 (67378) - http://www.bohemiancoding.com/sketch -->
    <title>Group</title>
    <desc>Created with Sketch.</desc>
    <defs>
        <linearGradient x1="0%" y1="50%" x2="100%" y2="50%" id="linearGradient-1">
            <stop stop-color="#34569A" offset="0%"></stop>
            <stop stop-color="#7897D7" offset="100%"></stop>
        </linearGradient>
    </defs>
    <g id="Page-1" stroke="none" stroke-width="1" fill="none" fill-rule="evenodd">
        <g id="Letter" transform="translate(-239.000000, -149.000000)">
            <g id="Group" transform="translate(239.000000, 149.000000)">
                <circle id="Oval" fill="#7897D7" cx="51" cy="16" r="2"></circle>
                <circle id="Oval-Copy-2" fill="#7897D7" cx="50" cy="43" r="2"></circle>
                <circle id="Oval-Copy" fill="#7897D7" cx="42" cy="44" r="2"></circle>
                <circle id="Oval-Copy-3" fill="#7897D7" cx="43" cy="8" r="2"></circle>
                <circle id="Oval-Copy-6" fill="url(#linearGradient-1)" cx="26" cy="8" r="2"></circle>
                <circle id="Oval-Copy-34" fill="#34569A" cx="7" cy="42" r="2"></circle>
                <circle id="Oval-Copy-20" fill="#34569A" cx="13" cy="8" r="2"></circle>
                <circle id="Oval-Copy-45" fill="url(#linearGradient-1)" cx="33" cy="47" r="2"></circle>
                <circle id="Oval-Copy-4" fill="url(#linearGradient-1)" cx="36" cy="9" r="2"></circle>
                <circle id="Oval-Copy-38" fill="url(#linearGradient-1)" cx="18" cy="48" r="2"></circle>
                <circle id="Oval-Copy-23" fill="#34569A" cx="12" cy="18" r="2"></circle>
                <circle id="Oval-Copy-47" fill="#7897D7" cx="37" cy="52" r="2"></circle>
                <circle id="Oval-Copy-36" fill="url(#linearGradient-1)" cx="16" cy="43" r="2"></circle>
                <circle id="Oval-Copy-27" fill="#34569A" cx="2" cy="25" r="2"></circle>
                <circle id="Oval-Copy-5" fill="url(#linearGradient-1)" cx="28" cy="2" r="2"></circle>
                <circle id="Oval-Copy-7" fill="#7897D7" cx="44" cy="17" r="1"></circle>
                <circle id="Oval-Copy-55" fill="url(#linearGradient-1)" cx="22" cy="2" r="1"></circle>
                <circle id="Oval-Copy-56" fill="#34569A" cx="3" cy="39" r="1"></circle>
                <circle id="Oval-Copy-51" fill="#7897D7" cx="46" cy="45" r="1"></circle>
                <circle id="Oval-Copy-11" fill="#7897D7" cx="46" cy="11" r="1"></circle>
                <circle id="Oval-Copy-8" fill="#7897D7" cx="47.5" cy="19.5" r="1.5"></circle>
                <circle id="Oval-Copy-42" fill="url(#linearGradient-1)" cx="21.5" cy="45.5" r="1.5"></circle>
                <circle id="Oval-Copy-35" fill="#34569A" cx="11.5" cy="42.5" r="1.5"></circle>
                <circle id="Oval-Copy-33" fill="#34569A" cx="5.5" cy="36.5" r="1.5"></circle>
                <circle id="Oval-Copy-26" fill="#34569A" cx="3.5" cy="19.5" r="1.5"></circle>
                <circle id="Oval-Copy-48" fill="#7897D7" cx="37.5" cy="47.5" r="1.5"></circle>
                <circle id="Oval-Copy-28" fill="#34569A" cx="6.5" cy="26.5" r="1.5"></circle>
                <circle id="Oval-Copy-14" fill="#7897D7" cx="47.5" cy="13.5" r="1.5"></circle>
                <circle id="Oval-Copy-53" fill="#7897D7" cx="48.5" cy="37.5" r="1.5"></circle>
                <circle id="Oval-Copy-52" fill="#7897D7" cx="44.5" cy="40.5" r="1.5"></circle>
                <circle id="Oval-Copy-46" fill="url(#linearGradient-1)" cx="32.5" cy="51.5" r="1.5"></circle>
                <circle id="Oval-Copy-22" fill="#34569A" cx="13.5" cy="12.5" r="1.5"></circle>
                <circle id="Oval-Copy-39" fill="#34569A" cx="14.5" cy="50.5" r="1.5"></circle>
                <circle id="Oval-Copy-31" fill="#34569A" cx="8.5" cy="33.5" r="1.5"></circle>
                <circle id="Oval-Copy-12" fill="#7897D7" cx="38.5" cy="5.5" r="1.5"></circle>
                <circle id="Oval-Copy-15" fill="url(#linearGradient-1)" cx="31.5" cy="7.5" r="1.5"></circle>
                <circle id="Oval-Copy-54" fill="url(#linearGradient-1)" cx="15.5" cy="4.5" r="1.5"></circle>
                <circle id="Oval-Copy-44" fill="url(#linearGradient-1)" cx="27.5" cy="54.5" r="1.5"></circle>
                <circle id="Oval-Copy-24" fill="#34569A" cx="7.5" cy="16.5" r="1.5"></circle>
                <circle id="Oval-Copy-37" fill="#34569A" cx="11.5" cy="47.5" r="1.5"></circle>
                <circle id="Oval-Copy-19" fill="url(#linearGradient-1)" cx="19.5" cy="4.5" r="1.5"></circle>
                <circle id="Oval-Copy-57" fill="url(#linearGradient-1)" cx="24.5" cy="4.5" r="1.5"></circle>
                <circle id="Oval-Copy-10" fill="#7897D7" cx="40.5" cy="12.5" r="2.5"></circle>
                <circle id="Oval-Copy-13" fill="url(#linearGradient-1)" cx="33.5" cy="3.5" r="2.5"></circle>
                <circle id="Oval-Copy-40" fill="url(#linearGradient-1)" cx="21.5" cy="52.5" r="2.5"></circle>
                <circle id="Oval-Copy-18" fill="url(#linearGradient-1)" cx="18.5" cy="9.5" r="2.5"></circle>
                <circle id="Oval-Copy-25" fill="#34569A" cx="7.5" cy="21.5" r="2.5"></circle>
                <circle id="Oval-Copy-43" fill="url(#linearGradient-1)" cx="27.5" cy="49.5" r="2.5"></circle>
                <circle id="Oval-Copy-50" fill="#7897D7" cx="43.5" cy="49.5" r="2.5"></circle>
                <circle id="Oval-Copy-29" fill="#34569A" cx="3.5" cy="31.5" r="2.5"></circle>
                <circle id="Oval-Copy-21" fill="#34569A" cx="8.5" cy="11.5" r="2.5"></circle>
                <circle id="Oval-Copy-32" fill="#34569A" cx="11.5" cy="37.5" r="2.5"></circle>
                <circle id="Oval-Copy-9" fill="#7897D7" cx="44.5" cy="13.5" r="1"></circle>
                <circle id="Oval-Copy-49" fill="#7897D7" cx="38.5" cy="44.5" r="1"></circle>
                <circle id="Oval-Copy-17" fill="#34569A" cx="8.5" cy="29.5" r="1"></circle>
                <circle id="Oval-Copy-30" fill="url(#linearGradient-1)" cx="22.5" cy="7.5" r="1"></circle>
                <circle id="Oval-Copy-41" fill="url(#linearGradient-1)" cx="22.5" cy="48.5" r="1"></circle>
            </g>
        </g>
    </g>
</svg>