<?xml version="1.0" encoding="UTF-8"?>
<svg width="68px" height="24px" viewBox="0 0 68 24" version="1.1" xmlns="http://www.w3.org/2000/svg" xmlns:xlink="http://www.w3.org/1999/xlink">
    <!-- Generator: Sketch 52.4 (67378) - http://www.bohemiancoding.com/sketch -->
    <title>Group 4</title>
    <desc>Created with Sketch.</desc>
    <g id="Page-1" stroke="none" stroke-width="1" fill="none" fill-rule="evenodd">
        <g id="Desktop" transform="translate(-60.000000, -2709.000000)" fill="#FFFFFF">
            <g id="Group-4" transform="translate(60.000000, 2702.000000)">
                <text id="ORI" font-family="Arciform, Arciform Sans" font-size="32" font-weight="normal">
                    <tspan x="23.432" y="30">ORI</tspan>
                </text>
                <g id="Group-3" transform="translate(0.000000, 7.000000)">
                    <circle id="Oval" cx="21" cy="7" r="1"></circle>
                    <circle id="Oval-Copy-2" cx="20" cy="18" r="1"></circle>
                    <circle id="Oval-Copy" cx="17" cy="18" r="1"></circle>
                    <circle id="Oval-Copy-3" cx="17" cy="4" r="1"></circle>
                    <circle id="Oval-Copy-6" cx="11" cy="4" r="1"></circle>
                    <circle id="Oval-Copy-34" cx="3" cy="18" r="1"></circle>
                    <circle id="Oval-Copy-20" cx="6" cy="4" r="1"></circle>
                    <circle id="Oval-Copy-45" cx="14" cy="20" r="1"></circle>
                    <circle id="Oval-Copy-4" cx="15" cy="4" r="1"></circle>
                    <circle id="Oval-Copy-38" cx="8" cy="20" r="1"></circle>
                    <circle id="Oval-Copy-23" cx="5" cy="8" r="1"></circle>
                    <circle id="Oval-Copy-47" cx="15" cy="22" r="1"></circle>
                    <circle id="Oval-Copy-36" cx="7" cy="18" r="1"></circle>
                    <circle id="Oval-Copy-27" cx="1" cy="11" r="1"></circle>
                    <circle id="Oval-Copy-5" cx="11" cy="1" r="1"></circle>
                    <circle id="Oval-Copy-7" cx="17.5" cy="7.5" r="1"></circle>
                    <circle id="Oval-Copy-55" cx="9.5" cy="1.5" r="1"></circle>
                    <circle id="Oval-Copy-56" cx="1.5" cy="16.5" r="1"></circle>
                    <circle id="Oval-Copy-51" cx="18.5" cy="18.5" r="1"></circle>
                    <circle id="Oval-Copy-11" cx="18.5" cy="5.5" r="1"></circle>
                    <circle id="Oval-Copy-8" cx="20" cy="9" r="1"></circle>
                    <circle id="Oval-Copy-42" cx="9" cy="19" r="1"></circle>
                    <circle id="Oval-Copy-35" cx="5" cy="18" r="1"></circle>
                    <circle id="Oval-Copy-33" cx="2" cy="15" r="1"></circle>
                    <circle id="Oval-Copy-26" cx="2" cy="9" r="1"></circle>
                    <circle id="Oval-Copy-48" cx="16" cy="20" r="1"></circle>
                    <circle id="Oval-Copy-28" cx="3" cy="12" r="1"></circle>
                    <circle id="Oval-Copy-14" cx="20" cy="6" r="1"></circle>
                    <circle id="Oval-Copy-53" cx="20" cy="16" r="1"></circle>
                    <circle id="Oval-Copy-52" cx="18" cy="18" r="1"></circle>
                    <circle id="Oval-Copy-46" cx="14" cy="22" r="1"></circle>
                    <circle id="Oval-Copy-22" cx="6" cy="6" r="1"></circle>
                    <circle id="Oval-Copy-39" cx="6" cy="22" r="1"></circle>
                    <circle id="Oval-Copy-31" cx="4" cy="14" r="1"></circle>
                    <circle id="Oval-Copy-12" cx="16" cy="2" r="1"></circle>
                    <circle id="Oval-Copy-15" cx="13" cy="4" r="1"></circle>
                    <circle id="Oval-Copy-54" cx="6" cy="2" r="1"></circle>
                    <circle id="Oval-Copy-44" cx="11" cy="23" r="1"></circle>
                    <circle id="Oval-Copy-24" cx="4" cy="7" r="1"></circle>
                    <circle id="Oval-Copy-37" cx="5" cy="20" r="1"></circle>
                    <circle id="Oval-Copy-19" cx="8" cy="2" r="1"></circle>
                    <circle id="Oval-Copy-57" cx="11" cy="2" r="1"></circle>
                    <circle id="Oval-Copy-10" cx="16" cy="6" r="1"></circle>
                    <circle id="Oval-Copy-13" cx="14" cy="2" r="1"></circle>
                    <circle id="Oval-Copy-40" cx="9" cy="22" r="1"></circle>
                    <circle id="Oval-Copy-18" cx="8" cy="4" r="1"></circle>
                    <circle id="Oval-Copy-25" cx="4" cy="10" r="1"></circle>
                    <circle id="Oval-Copy-43" cx="11" cy="21" r="1"></circle>
                    <circle id="Oval-Copy-50" cx="18" cy="21" r="1"></circle>
                    <circle id="Oval-Copy-29" cx="2" cy="13" r="1"></circle>
                    <circle id="Oval-Copy-21" cx="4" cy="5" r="1"></circle>
                    <circle id="Oval-Copy-32" cx="5" cy="16" r="1"></circle>
                    <circle id="Oval-Copy-9" cx="17.5" cy="6.5" r="1"></circle>
                    <circle id="Oval-Copy-49" cx="16.5" cy="18.5" r="1"></circle>
                    <circle id="Oval-Copy-17" cx="4.5" cy="12.5" r="1"></circle>
                    <circle id="Oval-Copy-30" cx="9.5" cy="3.5" r="1"></circle>
                    <circle id="Oval-Copy-41" cx="9.5" cy="20.5" r="1"></circle>
                </g>
            </g>
        </g>
    </g>
</svg>