<?xml version="1.0" encoding="UTF-8"?>
<svg width="158px" height="76px" viewBox="0 0 158 76" version="1.1" xmlns="http://www.w3.org/2000/svg" xmlns:xlink="http://www.w3.org/1999/xlink">
    <!-- Generator: Sketch 52.4 (67378) - http://www.bohemiancoding.com/sketch -->
    <title>Group</title>
    <desc>Created with Sketch.</desc>
    <defs>
        <linearGradient x1="0%" y1="50%" x2="100%" y2="50%" id="linearGradient-1">
            <stop stop-color="#34569A" offset="0%"></stop>
            <stop stop-color="#7897D7" offset="100%"></stop>
        </linearGradient>
    </defs>
    <g id="Page-1" stroke="none" stroke-width="1" fill="none" fill-rule="evenodd">
        <g id="Letter" transform="translate(-240.000000, -151.000000)">
            <g id="Group" transform="translate(229.000000, 149.000000)">
                <text id="ORI" font-family="Arciform, Arciform Sans" font-size="75" font-weight="normal" fill="#373737">
                    <tspan x="41.95" y="56"> ORI</tspan>
                </text>
                <text id="Tech-for-Good" font-family="Lato-Light, Lato" font-size="18" font-weight="300" fill="#373737">
                    <tspan x="36.474" y="77">Tech for Good</tspan>
                </text>
                <circle id="Oval" fill="#7897D7" cx="62" cy="18" r="2"></circle>
                <circle id="Oval-Copy-2" fill="#7897D7" cx="61" cy="45" r="2"></circle>
                <circle id="Oval-Copy" fill="#7897D7" cx="53" cy="46" r="2"></circle>
                <circle id="Oval-Copy-3" fill="#7897D7" cx="54" cy="10" r="2"></circle>
                <circle id="Oval-Copy-6" fill="url(#linearGradient-1)" cx="37" cy="10" r="2"></circle>
                <circle id="Oval-Copy-34" fill="#34569A" cx="18" cy="44" r="2"></circle>
                <circle id="Oval-Copy-20" fill="#34569A" cx="24" cy="10" r="2"></circle>
                <circle id="Oval-Copy-45" fill="url(#linearGradient-1)" cx="44" cy="49" r="2"></circle>
                <circle id="Oval-Copy-4" fill="url(#linearGradient-1)" cx="47" cy="11" r="2"></circle>
                <circle id="Oval-Copy-38" fill="url(#linearGradient-1)" cx="29" cy="50" r="2"></circle>
                <circle id="Oval-Copy-23" fill="#34569A" cx="23" cy="20" r="2"></circle>
                <circle id="Oval-Copy-47" fill="#7897D7" cx="48" cy="54" r="2"></circle>
                <circle id="Oval-Copy-36" fill="url(#linearGradient-1)" cx="27" cy="45" r="2"></circle>
                <circle id="Oval-Copy-27" fill="#34569A" cx="13" cy="27" r="2"></circle>
                <circle id="Oval-Copy-5" fill="url(#linearGradient-1)" cx="39" cy="4" r="2"></circle>
                <circle id="Oval-Copy-7" fill="#7897D7" cx="55" cy="19" r="1"></circle>
                <circle id="Oval-Copy-55" fill="url(#linearGradient-1)" cx="33" cy="4" r="1"></circle>
                <circle id="Oval-Copy-56" fill="#34569A" cx="14" cy="41" r="1"></circle>
                <circle id="Oval-Copy-51" fill="#7897D7" cx="57" cy="47" r="1"></circle>
                <circle id="Oval-Copy-11" fill="#7897D7" cx="57" cy="13" r="1"></circle>
                <circle id="Oval-Copy-8" fill="#7897D7" cx="58.5" cy="21.5" r="1.5"></circle>
                <circle id="Oval-Copy-42" fill="url(#linearGradient-1)" cx="32.5" cy="47.5" r="1.5"></circle>
                <circle id="Oval-Copy-35" fill="#34569A" cx="22.5" cy="44.5" r="1.5"></circle>
                <circle id="Oval-Copy-33" fill="#34569A" cx="16.5" cy="38.5" r="1.5"></circle>
                <circle id="Oval-Copy-26" fill="#34569A" cx="14.5" cy="21.5" r="1.5"></circle>
                <circle id="Oval-Copy-48" fill="#7897D7" cx="48.5" cy="49.5" r="1.5"></circle>
                <circle id="Oval-Copy-28" fill="#34569A" cx="17.5" cy="28.5" r="1.5"></circle>
                <circle id="Oval-Copy-14" fill="#7897D7" cx="58.5" cy="15.5" r="1.5"></circle>
                <circle id="Oval-Copy-53" fill="#7897D7" cx="59.5" cy="39.5" r="1.5"></circle>
                <circle id="Oval-Copy-52" fill="#7897D7" cx="55.5" cy="42.5" r="1.5"></circle>
                <circle id="Oval-Copy-46" fill="url(#linearGradient-1)" cx="43.5" cy="53.5" r="1.5"></circle>
                <circle id="Oval-Copy-22" fill="#34569A" cx="24.5" cy="14.5" r="1.5"></circle>
                <circle id="Oval-Copy-39" fill="#34569A" cx="25.5" cy="52.5" r="1.5"></circle>
                <circle id="Oval-Copy-31" fill="#34569A" cx="19.5" cy="35.5" r="1.5"></circle>
                <circle id="Oval-Copy-12" fill="#7897D7" cx="49.5" cy="7.5" r="1.5"></circle>
                <circle id="Oval-Copy-15" fill="url(#linearGradient-1)" cx="42.5" cy="9.5" r="1.5"></circle>
                <circle id="Oval-Copy-54" fill="url(#linearGradient-1)" cx="26.5" cy="6.5" r="1.5"></circle>
                <circle id="Oval-Copy-44" fill="url(#linearGradient-1)" cx="38.5" cy="56.5" r="1.5"></circle>
                <circle id="Oval-Copy-24" fill="#34569A" cx="18.5" cy="18.5" r="1.5"></circle>
                <circle id="Oval-Copy-37" fill="#34569A" cx="22.5" cy="49.5" r="1.5"></circle>
                <circle id="Oval-Copy-19" fill="url(#linearGradient-1)" cx="30.5" cy="6.5" r="1.5"></circle>
                <circle id="Oval-Copy-57" fill="url(#linearGradient-1)" cx="35.5" cy="6.5" r="1.5"></circle>
                <circle id="Oval-Copy-10" fill="#7897D7" cx="51.5" cy="14.5" r="2.5"></circle>
                <circle id="Oval-Copy-13" fill="url(#linearGradient-1)" cx="44.5" cy="5.5" r="2.5"></circle>
                <circle id="Oval-Copy-40" fill="url(#linearGradient-1)" cx="32.5" cy="54.5" r="2.5"></circle>
                <circle id="Oval-Copy-18" fill="url(#linearGradient-1)" cx="29.5" cy="11.5" r="2.5"></circle>
                <circle id="Oval-Copy-25" fill="#34569A" cx="18.5" cy="23.5" r="2.5"></circle>
                <circle id="Oval-Copy-43" fill="url(#linearGradient-1)" cx="38.5" cy="51.5" r="2.5"></circle>
                <circle id="Oval-Copy-50" fill="#7897D7" cx="54.5" cy="51.5" r="2.5"></circle>
                <circle id="Oval-Copy-29" fill="#34569A" cx="14.5" cy="33.5" r="2.5"></circle>
                <circle id="Oval-Copy-21" fill="#34569A" cx="19.5" cy="13.5" r="2.5"></circle>
                <circle id="Oval-Copy-32" fill="#34569A" cx="22.5" cy="39.5" r="2.5"></circle>
                <circle id="Oval-Copy-9" fill="#7897D7" cx="55.5" cy="15.5" r="1"></circle>
                <circle id="Oval-Copy-49" fill="#7897D7" cx="49.5" cy="46.5" r="1"></circle>
                <circle id="Oval-Copy-17" fill="#34569A" cx="19.5" cy="31.5" r="1"></circle>
                <circle id="Oval-Copy-30" fill="url(#linearGradient-1)" cx="33.5" cy="9.5" r="1"></circle>
                <circle id="Oval-Copy-41" fill="url(#linearGradient-1)" cx="33.5" cy="50.5" r="1"></circle>
            </g>
        </g>
    </g>
</svg>