<?xml version="1.0" encoding="UTF-8"?>
<svg width="623px" height="643px" viewBox="0 0 623 643" version="1.1" xmlns="http://www.w3.org/2000/svg" xmlns:xlink="http://www.w3.org/1999/xlink">
    <!-- Generator: Sketch 52.4 (67378) - http://www.bohemiancoding.com/sketch -->
    <title>undraw_mobile_testing_reah</title>
    <desc>Created with Sketch.</desc>
    <g id="Page-1" stroke="none" stroke-width="1" fill="none" fill-rule="evenodd">
        <g id="Desktop" transform="translate(0.000000, -1429.000000)">
            <g id="Group-Copy-2" transform="translate(-126.000000, 863.000000)">
                <g id="undraw_mobile_testing_reah" transform="translate(0.000000, 566.000000)">
                    <path d="M319.956279,220.302717 C289.578842,210.460774 257.460506,202.210044 224.635717,203.060375 C176.378316,204.314822 129.979557,226.827529 107.095558,260.099861 C87.7522284,288.295468 85.1703145,321.433094 76.7265308,352.785868 C66.3231839,391.412756 46.5761679,428.069571 25.5003493,463.918151 C14.1802968,483.172661 2.23789359,502.831288 0.26992011,523.988517 C-2.42973582,553.3628 15.3493067,582.728664 43.3803135,602.412549 C71.4113204,622.096433 108.710305,632.586647 146.185903,635.036609 C166.126352,636.333152 186.966686,635.331278 204.720498,628.141356 C223.500348,620.564155 237.234112,606.697877 256.089652,599.204867 C273.56593,592.267518 293.935296,591.375093 313.53934,592.393805 C338.927766,593.679457 364.072336,597.992453 388.440074,605.241371 C415.764629,613.424748 441.154851,625.203086 468.420535,633.504331 C495.686218,641.805575 526.164577,646.50344 554.103072,639.827084 C580.334309,633.563264 601.141003,618.122612 619.904032,602.479902 C650.140475,577.335917 678.25543,549.740079 703.963412,519.972601 C720.90985,500.280297 736.695689,479.48509 744.264817,456.475656 C758.721853,412.477375 739.353294,362.661487 696.015827,332.361102 C660.112926,307.24689 611.813474,296.158919 564.514829,289.423629 C521.379206,283.218743 471.473417,282.604148 431.828002,266.801474 C394.015999,251.689168 359.618514,233.150282 319.956279,220.302717 Z" id="Path" fill="#34569A" opacity="0.1"></path>
                    <ellipse id="Oval" fill="#34569A" opacity="0.1" cx="715" cy="337.5" rx="16" ry="2.5"></ellipse>
                    <ellipse id="Oval" fill="#34569A" opacity="0.1" cx="653" cy="343.5" rx="16" ry="2.5"></ellipse>
                    <ellipse id="Oval" fill="#34569A" opacity="0.1" cx="582" cy="335.5" rx="16" ry="2.5"></ellipse>
                    <ellipse id="Oval" fill="#34569A" opacity="0.1" cx="678" cy="362.5" rx="11" ry="1.5"></ellipse>
                    <ellipse id="Oval" fill="#34569A" opacity="0.1" cx="615" cy="359.5" rx="11" ry="1.5"></ellipse>
                    <path d="M653.004418,344 C653.004418,344 675.409638,270.729071 649.500579,241.382085 C630.149988,219.427009 608.117959,222.074858 598.26989,224.770974 C593.110327,226.140927 588.814547,229.703477 586.521317,234.514229 C583.065855,241.926825 583.70166,253.959365 608.014295,268.005373 C648.726555,291.525714 651.262865,323.78947 651.262865,323.78947 L653.004418,344 Z" id="Path" fill="#34569A"></path>
                    <path d="M602,234 C602,234 667.55198,254.445008 652.851489,342" id="Path" stroke="#565987"></path>
                    <path d="M641,243 C641,243 631.612365,248.995944 634.579885,258" id="Path" stroke="#565987"></path>
                    <path d="M609,248 C609,248 614.384184,243.11798 621,245.809656" id="Path" stroke="#565987"></path>
                    <path d="M634,275.797828 C634,275.797828 643.535172,271.042274 646,277" id="Path" stroke="#565987"></path>
                    <path d="M658,286.036455 C658,286.036455 651.123148,285.44795 651,289" id="Path" stroke="#565987"></path>
                    <path d="M653,344 C653,344 627.125529,290.855875 620.050904,292.018811 C616.646368,292.569314 615.121136,295.927378 614.419802,299.292324 C613.548352,303.647857 614.040996,308.169558 615.82928,312.229131 C619.499369,320.734393 629.352095,336.884757 653,344 Z" id="Path" fill="#34569A"></path>
                    <path d="M622,302 C622,302 649.656151,342.231432 655,344" id="Path" stroke="#565987"></path>
                    <path d="M619,308.5 L625,308.5" id="Path" stroke="#565987"></path>
                    <path d="M626,323.19 L636,323.81" id="Path" stroke="#565987"></path>
                    <path d="M632,311 L631,316" id="Path" stroke="#565987"></path>
                    <path d="M642.64,327 L642.36,332" id="Path" stroke="#565987"></path>
                    <path d="M654,344 C654,344 679.874471,290.855875 686.949096,292.018811 C690.353632,292.569314 691.878864,295.927378 692.580198,299.292324 C693.451648,303.647857 692.959004,308.169558 691.17072,312.229131 C687.500631,320.734393 677.647905,336.884757 654,344 Z" id="Path" fill="#34569A"></path>
                    <path d="M686,302 C686,302 658.343849,342.231432 653,344" id="Path" stroke="#565987"></path>
                    <path d="M688,308.5 L682,308.5" id="Path" stroke="#565987"></path>
                    <path d="M681,323.19 L671,323.81" id="Path" stroke="#565987"></path>
                    <path d="M675,311 L676,316" id="Path" stroke="#565987"></path>
                    <path d="M665.355,327 L665.645,332" id="Path" stroke="#565987"></path>
                    <path d="M608.554922,355.775226 C607.843538,355.227012 607.324179,354.490214 607.064432,353.660718 C606.827115,352.799923 607.26116,351.90018 608.106395,351.500806 C609.065553,351.157037 610.086816,351.779714 610.866563,352.415364 C611.64631,353.051013 612.529564,353.758011 613.543926,353.628287 C612.484387,352.722833 612.007697,351.361368 612.288049,350.041407 C612.330451,349.772266 612.449687,349.518967 612.63307,349.308464 C613.164403,348.776593 614.130461,349.010097 614.7653,349.425216 C616.787123,350.767863 617.352957,353.349379 617.366758,355.671447 C617.465443,354.809104 617.465443,353.9393 617.366758,353.076958 C617.286684,352.204769 617.671805,351.351994 618.394921,350.800294 C618.874127,350.553466 619.415199,350.432479 619.961316,350.450039 C620.874369,350.327961 621.799678,350.575456 622.507571,351.131092 C623.273517,351.909438 623.073405,353.213169 622.404064,354.06935 C621.65122,354.853193 620.762229,355.511168 619.775005,356.015216 C619.018948,356.435565 618.374709,357.012298 617.89119,357.701634 C617.836927,357.79753 617.790782,357.897294 617.753182,358 L612.053435,358 C610.786092,357.409734 609.6093,356.661388 608.554922,355.775226 Z" id="Path" fill="#34569A"></path>
                    <path d="M707.554061,334.764349 C706.839964,334.219134 706.320104,333.4821 706.06401,332.651821 C705.827623,331.793661 706.261752,330.897021 707.105666,330.500412 C708.064541,330.156965 709.085503,330.779059 709.86502,331.407633 C710.644538,332.036207 711.53443,332.755504 712.548492,332.619421 C711.484359,331.717646 711.004661,330.355953 711.286088,329.035899 C711.327842,328.767562 711.449846,328.515878 711.637905,328.310123 C712.169081,327.778751 713.127957,328.005556 713.762608,328.426765 C715.783835,329.761676 716.349503,332.314854 716.3633,334.667147 C716.464963,333.805766 716.464963,332.936469 716.3633,332.075088 C716.283249,331.203715 716.668256,330.35174 717.391159,329.800557 C717.872533,329.560282 718.412223,329.441915 718.957093,329.457109 C719.865109,329.32286 720.790991,329.558564 721.502597,330.105123 C722.275217,330.876261 722.075163,332.178771 721.399122,333.03415 C720.651398,333.83264 719.762175,334.503519 718.770837,335.017075 C718.015003,335.43703 717.370954,336.013223 716.887577,336.701913 C716.830853,336.79658 716.784621,336.896465 716.749609,337 L711.051543,337 C709.784917,336.404442 708.608682,335.652573 707.554061,334.764349 Z" id="Path" fill="#34569A"></path>
                    <path d="M674.551577,355.775226 C673.841723,355.227012 673.323481,354.490214 673.064293,353.660718 C672.827487,352.799923 673.260598,351.90018 674.104014,351.500806 C675.061109,351.157037 676.080174,351.779714 676.858243,352.415364 C677.636313,353.051013 678.517666,353.758011 679.529845,353.628287 C678.471258,352.723477 677.993133,351.36245 678.269785,350.041407 C678.317598,349.7726 678.43859,349.520067 678.620949,349.308464 C679.151138,348.776593 680.115118,349.010097 680.748591,349.425216 C682.766064,350.767863 683.33068,353.349379 683.344452,355.671447 C683.454375,354.810264 683.465917,353.940459 683.378879,353.076958 C683.298977,352.204769 683.683269,351.351994 684.40483,350.800294 C684.883005,350.553466 685.422912,350.432479 685.967854,350.450039 C686.878942,350.327961 687.802261,350.575456 688.50863,351.131092 C689.272929,351.909438 689.073247,353.213169 688.405347,354.06935 C687.654122,354.853193 686.767044,355.511168 685.781944,356.015216 C685.027515,356.435565 684.384661,357.012298 683.902183,357.701634 C683.848037,357.79753 683.801991,357.897294 683.764471,358 L678.076989,358 C676.800297,357.412261 675.614309,356.663822 674.551577,355.775226 Z" id="Path" fill="#34569A"></path>
                    <path d="M581.494196,313 C581.494196,313 579.490373,315.726733 582.41854,319.840396 C585.346707,323.954059 587.751294,327.434851 586.781703,330 C586.781703,330 582.366828,322.358416 578.772875,322.250693 C575.178922,322.14297 577.538262,317.598416 581.494196,313 Z" id="Path" fill="#34569A"></path>
                    <path d="M581.546423,313 C581.367199,313.2626 581.226209,313.550777 581.127923,313.855388 C577.583751,318.1458 575.693962,322.153328 579.100813,322.254358 C582.278797,322.348653 586.09107,328.194929 587,329.663233 C587,329.777734 586.934609,329.892235 586.895375,330 C586.895375,330 582.429196,322.355388 578.793478,322.247623 C575.157759,322.139857 577.544517,317.600238 581.546423,313 Z" id="Path" fill="#000000" opacity="0.1"></path>
                    <path d="M577.145,316.522158 C577.145,317.341272 577.305,318 577.505,318 C577.705,318 577.855,317.341272 577.855,316.522158 C577.855,315.703043 577.655,316.092552 577.465,316.092552 C577.275,316.092552 577.145,315.708771 577.145,316.522158 Z" id="Path" fill="#FFD037"></path>
                    <path d="M575.475246,317.500169 C576.254448,317.856316 576.940146,318.06794 576.996249,317.980194 C577.052352,317.892447 576.472625,317.531139 575.693423,317.180153 C574.91422,316.829168 575.219668,317.082084 575.157331,317.180153 C575.094995,317.278223 574.696044,317.149184 575.475246,317.500169 Z" id="Path" fill="#FFD037"></path>
                    <path d="M592.504045,313 C592.504045,313 594.508652,315.726733 591.579339,319.840396 C588.650026,323.954059 586.244497,327.434851 587.220935,330 C587.220935,330 591.631071,322.358416 595.226431,322.250693 C598.821791,322.14297 596.461528,317.598416 592.504045,313 Z" id="Path" fill="#34569A"></path>
                    <path d="M592.453577,313 C592.632801,313.2626 592.773791,313.550777 592.872077,313.855388 C596.416249,318.1458 598.306038,322.153328 594.899187,322.254358 C591.721203,322.348653 587.90893,328.194929 587,329.663233 C587.030159,329.777779 587.067287,329.890257 587.111164,330 C587.111164,330 591.570804,322.355388 595.206522,322.247623 C598.842241,322.139857 596.455483,317.600238 592.453577,313 Z" id="Path" fill="#000000" opacity="0.1"></path>
                    <path d="M596.855,316.522158 C596.855,317.341272 596.695,318 596.495,318 C596.295,318 596.145,317.341272 596.145,316.522158 C596.145,315.703043 596.345,316.092552 596.535,316.092552 C596.725,316.092552 596.855,315.708771 596.855,316.522158 Z" id="Path" fill="#FFD037"></path>
                    <path d="M597.524754,317.500169 C596.745552,317.856316 596.059854,318.06794 596.003751,317.980194 C595.947648,317.892447 596.527375,317.531139 597.306577,317.180153 C598.08578,316.829168 597.780332,317.082084 597.842669,317.180153 C597.905005,317.278223 598.303956,317.149184 597.524754,317.500169 Z" id="Path" fill="#FFD037"></path>
                    <path d="M596,330.144459 C596,330.144459 590.0984,329.969636 588.317687,328.718976 C586.536973,327.468317 579.229906,325.975594 578.765965,327.979339 C578.302024,329.983084 569.896509,337.944271 576.555423,337.998063 C583.214338,338.051855 592.056503,336.976019 593.830395,335.906907 C595.604286,334.837794 596,330.144459 596,330.144459 Z" id="Path" fill="#A8A8A8"></path>
                    <path d="M576.466801,337.292743 C583.139506,337.347524 591.977254,336.251901 593.759829,335.163125 C595.125787,334.341408 595.651681,331.369529 595.808766,330 L596,330 C596,330 595.631191,334.793352 593.848616,335.868433 C592.066041,336.943513 583.235123,338.052832 576.555589,337.998051 C574.629588,337.998051 573.967098,337.313286 574.001247,336.279291 C574.294928,336.902427 575.032546,337.285895 576.466801,337.292743 Z" id="Path" fill="#000000" opacity="0.2"></path>
                    <circle id="Oval" fill="#34569A" opacity="0.1" cx="202" cy="42" r="15"></circle>
                    <circle id="Oval" fill="#34569A" opacity="0.1" cx="460" cy="19" r="15"></circle>
                    <circle id="Oval" fill="#34569A" opacity="0.1" cx="694" cy="77" r="15"></circle>
                    <circle id="Oval" fill="#34569A" opacity="0.1" cx="139" cy="177" r="25"></circle>
                    <circle id="Oval" fill="#34569A" opacity="0.1" cx="162" cy="301" r="25"></circle>
                    <circle id="Oval" fill="#34569A" opacity="0.1" cx="629" cy="193" r="25"></circle>
                    <path d="M423.373789,238.357075 C422.509249,238.440559 421.631201,238.398817 420.773415,238.537958 C419.333324,238.833176 417.959108,239.401728 416.720882,240.214606 C410.574542,243.818354 404.772666,248.77177 402.226325,255.561845 C402.016827,255.979233 401.950193,256.457225 402.037207,256.918468 C402.188167,257.298706 402.435412,257.630258 402.753154,257.878541 L405.144148,260.118709 C405.446391,260.441861 405.806479,260.701728 406.204561,260.883984 C406.849716,261.057688 407.529829,261.035947 408.163285,260.82137 C414.735141,259.269949 421.719005,257.481989 426.332138,252.417261 C428.520506,250.017081 430.540018,246.712485 433.761781,246.622043 C435.112625,246.622043 436.375664,247.157736 437.706246,247.317748 C439.036827,247.47776 440.637577,246.893368 440.955026,245.557615 C441.058036,244.893298 440.983313,244.212624 440.738891,243.588772 L438.75315,236.777826 C438.212812,234.913338 432.762156,234.815939 430.945271,235.149877 C428.17604,235.643828 426.311875,238.078793 423.373789,238.357075 Z" id="Path" fill="#65617D"></path>
                    <path d="M447.338866,276.341727 C447.239972,278.647348 447.430697,280.980498 447.042183,283.265471 C446.700476,285.067262 446.108746,286.815378 445.283273,288.46172 C444.012767,291.109064 442.3984,293.586382 440.479827,295.832824 C438.692662,297.897558 436.552302,299.838409 433.903343,300.650538 C431.254383,301.462667 427.997929,300.877659 426.344978,298.702805 C424.995774,296.934016 424.932199,294.573335 425.031094,292.364069 C425.271266,286.933817 426.147189,281.427857 428.647807,276.568848 C429.721518,274.504113 431.08485,272.535733 432.179753,270.450351 C434.468454,266.12129 435.775274,260.986983 439.72399,258 C442.201298,259.115251 444.850538,259.824497 447.564911,260.099147 C448.617431,260.209266 451.626649,260.278091 451.979844,261.592639 C452.220016,262.480474 450.242126,264.965039 449.860676,265.83911 C448.352955,269.155391 447.497541,272.71795 447.338866,276.341727 Z" id="Path" fill="#65617D"></path>
                    <path d="M419.223412,177.591411 C420.058144,179.695728 421.115471,181.758783 421.310241,184.000637 C421.449363,185.376007 421.310241,186.751377 421.310241,188.126747 C421.427361,190.01113 421.744445,191.878131 422.256271,193.696997 L426.130817,209.376218 C426.708173,211.721224 427.28553,214.128122 426.986417,216.521266 C426.78469,218.116696 426.200378,219.663987 426.207334,221.266294 C426.281308,222.481312 426.477037,223.686077 426.791647,224.862887 C427.525225,228.498549 427.32432,232.258069 426.207334,235.79708 C426.092903,236.06372 426.052096,236.355605 426.089081,236.642933 C426.186466,237.089928 426.6247,237.365002 427.021198,237.578185 C431.192547,239.834542 435.739762,241.332236 440.446467,242 C444.69457,232.009154 447.66234,221.532377 449.280711,210.81348 C450.268477,204.321732 450.748448,197.747462 452.014458,191.303853 C452.043341,190.931634 452.20334,190.581213 452.466604,190.313586 C452.939619,189.921606 453.656097,190.169172 454.212585,190.430493 C461.321306,193.809952 468.160252,197.718064 474.670469,202.12114 C479.304971,196.188159 481.035282,188.526995 479.393659,181.208635 C478.576018,178.091871 477.409464,175.074932 475.91561,172.213714 C474.324052,168.73333 472.34063,165.441449 470.002927,162.400447 C464.841502,156.004975 457.273268,151.920126 449.482438,149.148755 C444.745335,147.457049 439.869111,146.205462 434.999842,144.926368 C432.273052,144.204299 427.702895,141.852416 425.052622,143.681658 C422.270183,145.586546 420.419861,150.310943 419.279061,153.30925 C417.870857,157.028137 417.104304,160.954391 417.011373,164.924251 C416.896821,169.249515 417.648587,173.554477 419.223412,177.591411 Z" id="Path" fill="#3F3D56"></path>
                    <path d="M475,196.402269 C473.553406,197.961308 474.77159,200.450301 474.49473,202.556372 C474.313679,203.507349 473.96958,204.420799 473.477269,205.257339 L466.85339,218.105739 C465.746216,220.033859 464.916864,222.105209 464.389335,224.259842 C463.482618,228.895933 465.344502,234.106407 462.963505,238.202304 C462.195218,239.522017 461.004719,240.657107 460.68633,242.147768 C460.450999,243.234993 460.68633,244.370083 460.568664,245.470983 C460.40947,246.763345 459.710398,247.925787 459.322794,249.170283 C459.020451,250.366103 458.805332,251.581809 458.679094,252.808042 C457.839366,258.03711 455.06758,262.773107 450.899324,266.100904 C448.510891,268.100656 445.44402,269.131774 442.316659,268.986495 C439.229668,268.726655 436.163442,266.654774 435.533585,263.659777 C435.319018,262.640931 435.360547,261.505841 434.716848,260.678456 C433.803209,259.4955 431.879031,259.447635 431,258.237328 L434.40538,252.698635 C435.46437,250.982325 436.544125,249.190797 436.717162,247.187294 C436.924807,244.732491 435.727387,242.284526 436.15652,239.857074 C436.52336,237.771517 438.039169,236.034692 438.495989,233.969649 C439.063552,231.405439 437.928425,228.813878 437.312412,226.256506 C435.803524,219.958807 437.492371,213.394431 439.174296,207.110408 C441.409942,198.795531 443.70096,190.350734 448.227623,183 C457.260186,187.807038 465.56599,192.422615 475,196.402269 Z" id="Path" fill="#3F3D56"></path>
                    <path d="M473.50891,66.2476249 C474.044085,67.7101989 473.755914,69.3314483 473.652996,70.8837084 C473.412853,74.3331754 474.140143,77.7826423 473.975473,81.2804017 C473.810804,84.7781612 472.740454,88.1172451 471.999442,91.5184195 C469.893048,101.225219 470.400778,111.339056 468.493359,121.08725 C466.139961,133.160384 460.122672,144.405646 458.935681,156.658153 C458.558314,160.549151 458.606342,164.716107 456.486226,168 C443.88771,162.423898 431.978597,155.390109 421,147.041039 C423.415149,129.027923 425.802853,110.92512 425.480376,92.7533287 C425.324075,90.5627013 425.47653,88.3608559 425.933217,86.2131394 C426.505632,84.4091049 427.327907,82.6951313 428.375811,81.1217262 C431.031102,76.7822969 433.953982,72.6153408 436.87,68.4552837 C438.736252,65.7922953 440.75345,62.9982271 443.731219,61.74952 C446.708988,60.500813 450.235655,61.0596267 453.481012,61.652935 C457.387332,62.3704241 461.289079,63.0879132 465.186252,63.8054023 C467.621984,64.253833 472.466005,63.3983652 473.50891,66.2476249 Z" id="Path" fill="#34569A"></path>
                    <path d="M380.185085,134.946075 C378.593524,133.290023 376.85773,131.791063 375,130.468451 C377.42198,127.402946 376.944407,122.967899 377.537963,119.04377 C378.024188,116.494817 378.762674,114.00503 379.741624,111.614178 C379.987233,110.940051 380.33518,110.194963 381.010605,110.017561 C381.425307,109.964193 381.846085,110.033037 382.225007,110.216252 C384.271751,110.968436 388.542623,110.925859 390.132261,112.302498 C392.049378,113.977172 390.296001,117.482633 389.572818,119.575975 C389.061132,120.980998 381.201635,136.010486 380.185085,134.946075 Z" id="Path" fill="#BE6F72"></path>
                    <path d="M387.013617,262.821196 C388.036965,264.482473 388.705553,266.33859 388.977125,268.272231 C389.140185,270.207348 388.433594,272.326438 386.789411,273.348507 C385.145228,274.370576 382.787659,274.029886 380.830945,273.416645 C372.436916,270.678786 365.604149,264.48301 362.045134,256.382161 C361.426867,254.951264 360.890129,253.431788 359.796272,252.327954 C358.983753,251.611664 358.081588,251.004664 357.112585,250.522298 C354.442486,249.009636 351.867505,247.020008 350.63097,244.199098 C349.394436,241.378187 349.951556,237.61016 352.512948,235.933966 C354.125526,234.999639 356.044755,234.754131 357.839558,235.252587 C359.610487,235.756995 361.306004,236.497205 362.880814,237.453442 C365.516942,238.891153 368.737367,240.131263 371.033788,242.045939 C373.072032,243.728946 374.899657,246.004753 376.638958,247.987567 C378.630883,250.268874 380.497505,252.657235 382.230539,255.14205 C382.787659,255.871126 387.482414,262.160258 387.013617,262.821196 Z" id="Path" fill="#65617D"></path>
                    <path d="M336.546184,247.972622 C336.304535,251.44849 335.673061,254.888306 334.662994,258.230879 C334.087377,260.109832 333.326995,262.064773 331.72806,263.259842 C330.375511,264.112177 328.84291,264.657572 327.243937,264.855571 C326.68618,265.002573 326.103504,265.037826 325.5313,264.95919 C324.55062,264.75886 323.854195,263.936818 323.250153,263.156224 C320.876623,260.102924 318.567051,256.876927 317.565052,253.174283 C316.143776,247.806832 317.565052,242.052537 320.030964,237.037389 C320.917348,235.015621 322.209894,233.186138 323.832876,231.656122 C325.838141,230.054213 328.247445,229.00245 330.811338,228.60973 C333.433591,228.098544 336.652779,227.007093 336.844651,230.108748 C337.1253,236.063643 337.025619,242.029727 336.546184,247.972622 Z" id="Path" fill="#65617D"></path>
                    <path d="M375.185034,120 C379.908534,122.439579 385.152304,125.542013 386.138078,130.756015 C386.747341,133.940451 385.576734,137.200057 385.768412,140.439161 C385.939554,143.288754 387.137543,146.042676 386.986938,148.885435 C386.827029,150.228736 386.598543,151.563014 386.302373,152.883064 C385.89848,155.404646 386.138078,157.974062 386.035393,160.522978 C385.809486,166.263164 383.885858,171.784676 382.954849,177.449692 C382.295879,181.494727 382.141817,185.605712 382.496191,189.688588 C382.722097,192.32634 383.180756,194.950425 383.180756,197.601844 C383.180811,199.511316 383.022823,201.417528 382.708406,203.301029 C381.790838,209.218584 379.94255,214.954295 377.231884,220.296079 C373.939125,226.767455 374.404629,235.118058 374.753758,242.368459 C374.906293,243.367683 374.778333,244.389558 374.384092,245.320555 C373.52154,246.885439 371.372005,247.110946 369.592136,246.960608 C362.99166,246.358554 356.870319,243.264185 352.478005,238.309328 C351.837296,237.68638 351.402583,236.882867 351.232096,236.00642 C351.081492,234.54404 352.258944,233.341334 353.107805,232.131795 C355.99667,228.031662 355.264185,222.475982 355.606468,217.439653 C355.85633,213.77557 356.733886,210.181409 358.20097,206.813476 C359.049831,204.865913 360.110907,202.945684 360.302585,200.827282 C360.480572,198.852385 359.878155,196.897988 359.282583,195.011927 L357.228887,188.506383 C354.045659,178.399556 350.841894,168.231227 346.022554,158.794089 C342.860696,160.847666 340.597538,164.022699 339.690326,167.677709 C337.896765,174.114918 340.450193,181.303817 338.006295,187.495017 C337.601674,188.353442 337.265203,189.242258 336.999985,190.15327 C336.856105,190.939613 336.800995,191.739579 336.835689,192.53818 C336.899126,199.199137 337.305839,205.852424 338.054215,212.471659 C338.091122,213.474187 338.373145,214.452483 338.875693,215.321251 C339.279587,215.902103 339.868313,216.332617 340.299589,216.886135 C341.497578,218.437352 341.271672,220.610422 340.984154,222.544318 L339.615024,231.687614 C339.590691,232.15121 339.436524,232.598687 339.170056,232.979156 C338.847222,233.291273 338.444625,233.508763 338.006295,233.607843 C333.65632,234.956251 329.070688,235.375353 324.547743,234.837882 C323.212841,234.680711 322.00116,233.785515 320.885319,233.033824 C320.768943,231.667113 322.47351,230.75825 322.535121,229.398373 C322.468986,228.59266 322.093767,227.843548 321.487736,227.307305 C318.941153,224.437213 315.901684,221.389447 315.929066,217.555823 C315.929066,216.551291 316.168664,215.546758 316.134436,214.542226 C316.045443,211.965976 314.265573,209.758738 313.642619,207.278157 C312.875905,204.209891 313.895908,201.025455 314.28611,197.888854 C314.820071,193.665717 314.190271,189.387912 313.601545,185.171609 L311.308251,169.700441 C311.041673,167.299117 310.565226,164.925665 309.884355,162.607212 C309.021049,160.324492 308.00798,158.101047 306.851731,155.95133 C304.661123,151.50952 302.860716,146.890037 301.067155,142.284221 C300.497196,141.032819 300.138659,139.695876 300.006079,138.327593 C299.903394,135.983684 301.115075,133.769612 302.621118,131.965554 C305.44192,128.613041 309.291896,126.283118 313.574162,125.337006 C314.289842,125.137736 315.042138,125.107324 315.771616,125.24817 C316.385085,125.451365 316.960944,125.753791 317.476184,126.143365 C328.203799,133.14744 341.597974,134.733086 353.669148,130.428004 C354.353713,130.947354 355.620159,130.721847 356.407409,130.352835 C358.604864,129.348302 360.398425,127.674082 362.328898,126.252702 C365.922866,123.532948 370.769588,120.949864 375.185034,120 Z" id="Path" fill="#3F3D56"></path>
                    <path d="M232.260032,295.4408 C232.621251,296.484249 233.164906,297.4551 233.865621,298.308036 C236.328431,301.522609 239.764119,304.090182 241.349298,307.842787 C241.682661,308.646431 241.927582,309.490937 242.233732,310.308201 C243.164805,312.774825 244.682711,314.976948 246.655904,316.723727 C248.161034,317.97443 249.796484,319.059032 251.533901,319.958732 C254.540978,321.600071 257.792976,323.084768 261.208253,322.996231 C261.894956,322.981457 262.578558,322.899338 263.249256,322.751052 C264.312293,322.530426 265.337015,322.154068 266.29035,321.634124 C268.48783,320.421848 270.372355,318.051781 269.936941,315.579557 C269.849065,315.10827 269.700416,314.650405 269.494724,314.217449 C269.133877,313.528567 268.717493,312.870303 268.249713,312.249204 C267.099948,310.655539 265.916166,309.02101 264.235741,307.99943 C262.344412,306.841638 259.963242,306.555596 258.262406,305.125383 C257.591307,304.517397 257.01156,303.815459 256.541161,303.041359 C254.999588,300.669399 253.850902,298.063723 253.13949,295.325021 C252.622436,293.28186 252.275465,291.041194 250.785533,289.542876 C249.295601,288.044558 247.247795,287.704031 245.261219,287.363504 C244.58988,287.22491 243.905644,287.158698 243.220217,287.165998 C242.247339,287.200051 241.240444,287.479283 240.328796,287.022977 C239.417148,286.566671 239.110998,285.91967 238.008857,286.008207 C237.131595,286.126627 236.304665,286.487465 235.620883,287.050219 C233.035613,288.96398 231.321171,292.369248 232.260032,295.4408 Z" id="Path" fill="#3F3D56"></path>
                    <path d="M256.554045,298.109935 C257.000189,300.411072 257.686563,302.861545 259.484865,304.361696 C260.631111,305.33917 262.230364,305.950091 262.800055,307.328058 C263.369746,308.706024 262.635325,310.436968 261.688128,311.699538 C260.478718,313.296031 258.979857,314.656361 257.267875,315.711254 C255.81276,316.600484 254.076232,317.279285 252.408342,316.885581 C251.035592,316.566544 249.95112,315.58907 248.928422,314.645536 C246.58102,312.493736 244.178709,310.260479 242.860869,307.375574 C241.48812,304.334544 241.419482,300.811565 239.923185,297.818051 C239.051489,296.073531 237.706195,294.546228 237.177686,292.672736 C236.940771,291.995527 236.940771,291.259238 237.177686,290.582028 C237.69966,289.593775 238.741042,288.98162 239.868275,289.000421 C240.973422,289.036907 242.063294,289.266725 243.087373,289.679222 C246.186093,290.771644 249.357947,291.64942 252.579935,292.306184 C253.863456,292.543764 254.63906,292.536976 255.325434,293.765607 C255.959537,295.142217 256.373997,296.607732 256.554045,298.109935 Z" id="Path" fill="#FBBEBE"></path>
                    <path d="M265.229122,318.643603 C264.711349,319.363721 264.344338,320.164613 264.146561,321.005964 C263.981732,321.660154 263.955658,322.336926 264.069734,323 C265.16104,322.79428 266.213013,322.443347 267.1917,321.958529 C269.447617,320.828152 271.382257,318.618201 270.935265,316.312993 C270.845051,315.873546 270.692449,315.446613 270.481287,315.042907 C269.802947,314.904714 269.095011,315.105565 268.623474,315.569993 C267.322922,316.427589 266.177669,317.464624 265.229122,318.643603 Z" id="Path" fill="#FBBEBE"></path>
                    <path d="M239.317424,265.515761 C239.015954,266.182695 238.92626,266.930217 239.061046,267.652455 C239.379786,269.076919 240.800259,269.895985 242.08215,270.544116 L254.270501,276.669308 C255.116041,277.071408 255.939531,277.520786 256.737274,278.015425 C258.816015,279.325932 260.451292,281.177734 262.225151,282.872845 C263.99901,284.567956 265.973814,286.156233 268.322791,286.754507 C270.667722,287.282686 273.11848,286.952686 275.251928,285.821484 C276.40162,285.232749 277.46904,284.487722 278.425472,283.606444 C279.253385,282.859915 280.018321,282.042678 280.712088,281.163489 C281.308022,280.516714 281.734747,279.725234 281.952403,278.862981 C282.181065,277.559597 281.550513,276.27758 280.816025,275.202111 C280.393083,274.5821 279.930098,273.991993 279.430197,273.435776 C274.808463,268.186629 267.234916,265.465904 260.721528,264.397557 C258.130031,263.970218 255.670187,262.973094 253.175698,262.16115 C250.681209,261.349206 248.041207,260.736687 245.44971,261.114169 C242.858213,261.491652 240.308291,263.02295 239.317424,265.515761 Z" id="Path" fill="#3F3D56"></path>
                    <path d="M239.317424,265.515761 C239.015954,266.182695 238.92626,266.930217 239.061046,267.652455 C239.379786,269.076919 240.800259,269.895985 242.08215,270.544116 L254.270501,276.669308 C255.116041,277.071408 255.939531,277.520786 256.737274,278.015425 C258.816015,279.325932 260.451292,281.177734 262.225151,282.872845 C263.99901,284.567956 265.973814,286.156233 268.322791,286.754507 C270.667722,287.282686 273.11848,286.952686 275.251928,285.821484 C276.40162,285.232749 277.46904,284.487722 278.425472,283.606444 C279.253385,282.859915 280.018321,282.042678 280.712088,281.163489 C281.308022,280.516714 281.734747,279.725234 281.952403,278.862981 C282.181065,277.559597 281.550513,276.27758 280.816025,275.202111 C280.393083,274.5821 279.930098,273.991993 279.430197,273.435776 C274.808463,268.186629 267.234916,265.465904 260.721528,264.397557 C258.130031,263.970218 255.670187,262.973094 253.175698,262.16115 C250.681209,261.349206 248.041207,260.736687 245.44971,261.114169 C242.858213,261.491652 240.308291,263.02295 239.317424,265.515761 Z" id="Path" fill="#000000" opacity="0.1"></path>
                    <path d="M270.201188,268.988724 C271.112865,270.002299 271.86302,271.147589 272.425771,272.385082 C272.932082,273.195666 273.112515,274.164856 272.931359,275.100834 C272.666297,275.73087 272.24137,276.282484 271.697726,276.702261 L270.518022,277.783223 C270.161713,278.149829 269.747291,278.456357 269.291131,278.690698 C268.645795,278.930243 267.956721,279.032553 267.268782,278.990966 C265.684609,278.990966 263.979095,278.990966 262.691533,278.050128 C260.932089,276.795677 260.615255,274.200032 261.417453,272.204922 C262.219651,270.209812 263.898201,268.701802 265.590233,267.353935 C266.96543,266.252955 269.237201,267.98116 270.201188,268.988724 Z" id="Path" fill="#FBBEBE"></path>
                    <path d="M277.116279,276.987395 C276.887463,278.033125 276.997811,279.115344 277.434382,280.107143 C277.745416,281.052521 278.049381,281.997899 278.353346,282.962185 C278.353346,282.962185 278.353346,282.962185 278.353346,283 C279.197964,282.339398 279.978335,281.616228 280.6861,280.838235 C281.294059,280.265906 281.729395,279.565527 281.951443,278.802521 C282.184718,277.64916 281.541443,276.514706 280.792135,275.563025 C280.360659,275.014379 279.888332,274.492195 279.378344,274 C279.046103,274.384454 278.756276,274.762605 278.515932,275.008403 C277.897371,275.572191 277.420279,276.246759 277.116279,276.987395 Z" id="Path" fill="#FBBEBE"></path>
                    <path d="M246.254835,225.413953 C244.865888,231.376017 245.456358,237.6122 246.194446,243.697617 C246.758076,248.33021 247.388806,253.127273 246.046828,257.588542 C245.550296,259.253808 244.765239,260.946486 245.067184,262.666576 C245.637525,265.90802 249.462162,267.155256 252.62923,267.765169 C253.542906,268.002461 254.492362,268.060596 255.427253,267.936492 C256.36512,267.675658 257.235512,267.20779 257.977011,266.565903 C262.478785,263.223526 265.897749,258.58124 267.793579,253.23692 C268.994649,249.659681 269.377113,245.856295 269.746157,242.094027 C270.363467,235.761904 270.987486,229.354398 270.081651,223.063392 C269.813256,221.213096 269.410662,219.383359 269.242915,217.519357 C269.031709,214.277334 269.207457,211.021108 269.766286,207.822437 C270.921672,199.898408 272.671391,192.07674 275,184.426474 C268.610572,185.292935 262.115856,184.094743 256.427027,181 C257.527449,181.603059 256.265989,191.217745 256.131792,192.567775 C255.724676,196.592523 255.013546,200.579108 254.004757,204.491904 C252.132698,211.803999 247.952437,218.149829 246.254835,225.413953 Z" id="Path" fill="#3F3D56"></path>
                    <path d="M246.254835,225.413953 C244.865888,231.376017 245.456358,237.6122 246.194446,243.697617 C246.758076,248.33021 247.388806,253.127273 246.046828,257.588542 C245.550296,259.253808 244.765239,260.946486 245.067184,262.666576 C245.637525,265.90802 249.462162,267.155256 252.62923,267.765169 C253.542906,268.002461 254.492362,268.060596 255.427253,267.936492 C256.36512,267.675658 257.235512,267.20779 257.977011,266.565903 C262.478785,263.223526 265.897749,258.58124 267.793579,253.23692 C268.994649,249.659681 269.377113,245.856295 269.746157,242.094027 C270.363467,235.761904 270.987486,229.354398 270.081651,223.063392 C269.813256,221.213096 269.410662,219.383359 269.242915,217.519357 C269.031709,214.277334 269.207457,211.021108 269.766286,207.822437 C270.921672,199.898408 272.671391,192.07674 275,184.426474 C268.610572,185.292935 262.115856,184.094743 256.427027,181 C257.527449,181.603059 256.265989,191.217745 256.131792,192.567775 C255.724676,196.592523 255.013546,200.579108 254.004757,204.491904 C252.132698,211.803999 247.952437,218.149829 246.254835,225.413953 Z" id="Path" fill="#000000" opacity="0.1"></path>
                    <path d="M281.072577,190.281242 C283.779583,198.246781 283.184042,206.947706 282.013262,215.291247 C280.842482,223.634788 279.116766,231.978329 279.624329,240.383725 C279.820587,243.682654 280.348453,247.070929 279.401001,250.22553 C278.874463,251.76461 278.177451,253.237958 277.323374,254.617229 L255.728235,292.541166 C254.609697,294.540567 252.574059,295.832628 250.314223,295.97755 C248.0065,296.142497 245.739383,295.372747 243.587313,294.513651 C242.157344,294.032383 240.828438,293.284174 239.668922,292.307492 C238.50226,291.320646 237.885407,289.816148 238.017648,288.280049 C238.985403,281.695937 240.440419,274.953751 241.516454,268.349021 C242.248316,263.867632 243.8444,259.577132 246.213109,255.723745 C247.884685,252.974637 249.942009,250.507313 251.38349,247.648242 C255.525209,239.455901 254.090496,229.462896 250.896229,220.844444 C247.701962,212.225992 242.944399,204.22609 240.406581,195.4152 C239.654219,192.963394 239.224143,190.421381 239.127521,187.855155 C239.064347,182.502996 241.099817,177.34507 244.785163,173.518559 C245.317691,172.906081 245.988922,172.434337 246.740975,172.144006 C247.620123,171.936888 248.536027,171.953414 249.407376,172.192115 C261.433249,174.56322 277.100046,178.515062 281.072577,190.281242 Z" id="Path" fill="#3F3D56"></path>
                    <path d="M478.918808,72.2380627 C479.308998,75.2122444 478.246068,78.220378 476.732402,80.793928 C471.007381,90.4362524 457.808214,94.7006043 447.602742,90.2121702 C443.398115,88.3583994 439.839318,85.3027332 436.354522,82.2878092 C435.183954,81.2692538 433.966294,80.2031658 433.374282,78.7636075 C432.331535,76.2172191 433.589559,73.181924 435.641418,71.362105 C437.693276,69.542286 440.3506,68.6459573 442.99447,67.8379033 C451.719913,65.0945942 476.84004,56.4436637 478.918808,72.2380627 Z" id="Path" fill="#FBBEBE"></path>
                    <path d="M473.49632,63.0649684 C481.666927,69.5638016 493.559623,75.7547953 502.816415,80.5707727 C505.964278,82.2125832 509.45806,84.05962 510.592675,87.4116498 C511.201492,89.2039596 511.000859,91.1536095 510.800226,93.0416916 C510.412797,96.6741973 510.011531,100.36143 508.593263,103.733982 C506.925933,107.681168 503.978703,110.937426 501.612617,114.522046 C497.461589,120.801971 495.026319,128.2038 489.899799,133.751751 C493.35899,145.114448 497.143344,156.463463 498.374815,168.257135 C498.442874,168.581486 498.406587,168.918765 498.27104,169.221698 C498.129465,169.420862 497.945212,169.586701 497.731406,169.707401 L489.124941,175.289556 C488.186486,175.831051 487.346865,176.524823 486.641242,177.341819 C485.119199,179.29831 485.319832,182.048343 484.378932,184.326355 C483.336633,186.573152 481.412792,188.302506 479.051779,189.114969 C476.699937,189.916369 474.194564,190.178369 471.725215,189.881147 C468.581684,189.685426 465.554602,188.631659 462.980382,186.836957 C460.787255,185.195146 459.223701,182.889771 457.715494,180.6186 C456.598058,179.069571 455.669197,177.395686 454.948142,175.6316 C454.027998,173.114157 453.972651,170.370966 454.007243,167.689342 C454.030088,162.586506 454.523334,157.496354 455.480858,152.482072 C455.882124,150.491377 456.380247,148.528045 456.698493,146.523668 C457.334984,142.487551 457.210453,138.369343 457.680903,134.312703 C458.323658,129.74993 459.353517,125.248719 460.759582,120.856698 C461.528947,118.136304 462.129657,115.37201 462.558361,112.579236 C463.367811,107.667487 464.979794,102.926759 466.591776,98.2133946 L469.359128,90.1343188 C469.947191,88.3898952 470.542171,86.6523124 471.240928,84.948934 C472.541583,81.7679262 474.215831,78.6690089 474.658608,75.2759339 C475.149813,71.5750194 471.109479,67.1831764 472.4724,63.7080108 C472.583094,63.3249217 473.184993,62.8186968 473.49632,63.0649684 Z" id="Path" fill="#3F3D56"></path>
                    <path d="M507.673101,85 C509.573911,85.8531129 510.623817,87.8869341 511.303168,89.8525063 C512.834567,94.282298 513.203042,99.0276907 512.373661,103.638811 C512.105579,104.798003 511.922111,105.974954 511.82469,107.160461 C511.838923,108.534594 511.974399,109.904833 512.229556,111.255403 C512.915769,116.476454 512.229556,121.779404 512.456006,127.048229 C512.689319,132.972245 513.986262,139.230682 511.488446,144.61553 C509.82781,148.19178 506.684954,150.853492 503.58327,153.269508 C492.035705,162.220541 479.294635,169.533842 465.724889,175 C468.064876,172.20179 468.106049,167.990824 466.548345,164.694396 C464.990641,161.397968 462.094821,158.920528 459,156.995905 C462.939185,156.125157 466.754108,154.77024 470.356828,152.962387 C477.548342,149.331539 483.710536,144.014939 489.797247,138.752939 C490.69514,138.110858 491.394073,137.231291 491.814714,136.214074 C492.432306,134.166603 490.730497,132.221506 489.550211,130.426556 C485.97504,124.966634 486.805358,117.83461 488.301303,111.514749 C489.968801,104.587473 492.418582,97.6874953 496.885829,92.1183742 C499.671855,88.6376735 503.308785,85.9623114 507.673101,85 Z" id="Path" fill="#3F3D56"></path>
                    <path d="M466.465703,175.475434 C465.848478,176.508985 465.047059,177.413682 464.10346,178.142097 C462.043364,179.553029 459.214166,179.016875 456.913725,178.015113 C454.775874,177.083575 452.803408,175.793847 451.076787,174.19854 C450.334517,173.38779 449.457946,172.718963 448.487933,172.223234 C446.688783,171.517768 444.175466,172.046868 443.166019,170.346694 C443.048561,170.16814 442.990724,169.955228 443.001211,169.739993 C443.063014,169.126237 443.845851,168.956925 444.450145,168.921652 C447.253648,168.731239 449.97473,167.868684 452.395248,166.403137 C451.622099,165.829129 450.960591,165.111255 450.445024,164.286738 C450.231204,163.99898 450.115388,163.646993 450.115409,163.284976 C450.199312,162.891571 450.409772,162.538673 450.712837,162.283214 C455.227557,157.906065 461.870689,156.768617 467.523219,159.404911 C468.062692,159.629148 468.536023,159.993849 468.896616,160.463111 C469.150779,160.895779 469.321008,161.374905 469.397906,161.874043 C469.84426,163.849349 471.458002,166.812307 470.874308,168.808777 C470.228812,171.101543 467.791032,173.535401 466.465703,175.475434 Z" id="Path" fill="#FBBEBE"></path>
                    <path d="M418.857286,166.101315 C427.437796,156.265525 431.272816,143.322255 434.831934,130.803355 L437.377117,121.905285 L443.515907,100.474626 C444.419482,97.3123887 445.323056,94.1501515 445.92314,90.9263123 C446.95087,85.3615962 447.047435,79.673676 446.985358,74.0199792 C446.897718,71.6762541 446.35679,69.371109 445.392031,67.2300674 C444.791947,65.7516188 444.502252,64.1773449 444.012528,62.6509836 C443.389461,60.5230024 442.457735,58.4962902 441.246624,56.6345194 C440.909456,56.081004 440.488367,55.582339 439.998174,55.1560708 C439.149364,54.583622 438.187841,54.1963603 437.177089,54.0198557 C434.984289,53.3728492 432.711906,53.0296511 430.424421,53 C428.134446,53.082136 425.775495,53.869273 424.299427,55.5941296 C423.175131,56.9151508 422.657818,58.6263181 421.768038,60.1116113 C421.353854,60.7197542 420.978358,61.3529785 420.643743,62.0075847 C420.264513,63.00206 420.054722,64.0522345 420.022966,65.1150646 C419.664296,69.4272062 419.358506,73.7439109 419.105597,78.0651788 C418.988339,80.0295988 418.884876,82.0077082 418.960749,83.978973 C419.022827,85.5121789 419.188367,87.0385401 419.353907,88.5649014 L420.988619,103.513659 C421.367982,107.024974 421.098979,110.310416 421.416265,113.828576 C422.188787,122.32281 420.34715,130.817045 418.45723,139.153852 C417.553656,143.116915 416.622491,147.134736 414.691186,150.721343 C412.9875,153.897269 410.435419,157.121109 411.111375,160.659803 C411.345891,161.891843 411.973565,163.041747 412.07013,164.287477 C412.022911,165.058942 412.099745,165.832948 412.297748,166.580441 C412.875312,167.623489 414.065759,168.176803 415.242988,167.949375 C416.608765,167.711413 417.86931,167.066872 418.857286,166.101315 Z" id="Path" fill="#3F3D56"></path>
                    <path d="M420.116678,127.461925 C420.377018,129.395454 420.178338,131.355931 420.274252,133.302933 C420.489259,135.810542 420.948092,138.292126 421.64446,140.71367 C422.329564,143.408484 423.206497,146.426675 425.624914,147.922297 C426.231475,148.232194 426.811186,148.590456 427.358227,148.993485 C427.909901,149.421339 428.133776,150.140852 427.920012,150.79901 L426.035976,150.489106 C426.619301,150.927645 426.895605,151.656005 426.746872,152.363084 C426.598139,153.070164 426.050663,153.630962 425.338285,153.805947 C424.625906,153.980932 423.874564,153.739168 423.405177,153.18392 C423.476615,153.790923 423.418276,154.405908 423.233901,154.989445 C423.038465,155.575949 422.490988,155.979724 421.863693,156 C421.508516,155.945756 421.172196,155.806991 420.883995,155.595778 L415.964948,152.597798 C414.491037,151.81757 413.265211,150.651778 412.422961,149.229281 L410.271734,146.042664 C409.797546,145.428467 409.421009,144.746987 409.155015,144.021554 C408.353443,141.326741 410.593733,138.335498 409.429056,135.795636 C409.07922,135.169695 408.668522,134.578564 408.20272,134.030533 C405.715793,130.662016 405.873367,126.080833 406.147408,121.903872 C406.236472,120.495832 406.496811,118.825048 407.791658,118.211978 C408.819314,117.720174 410.052501,118.158082 411.004795,118.771152 C411.95709,119.384222 412.799768,120.192666 413.882232,120.556466 C414.567336,120.785525 415.32095,120.812473 416.006054,121.055006 C416.9652,121.385121 417.855835,122.671894 418.499833,123.433179 C419.410439,124.601467 419.970496,125.996978 420.116678,127.461925 Z" id="Path" fill="#FBBEBE"></path>
                    <path d="M359.578726,65.9880493 C358.999582,67.3226162 358.186611,68.5420626 357.178447,69.5884394 C356.151148,70.6487775 354.683485,71.1567885 353.223443,70.9574089 C351.70963,70.6562356 350.598138,69.4036285 349.595749,68.2194698 C346.977263,65.1324434 344.324682,62.0043478 342.565387,58.349199 C339.878711,52.7843377 339.449116,46.4323188 339.060434,40.2651108 C338.964969,38.6771061 338.883141,36.9932735 339.640047,35.6037694 C340.601522,33.8309537 342.640395,32.9958823 344.522432,32.290863 L354.921367,28.3892996 C355.558705,28.0863075 356.264093,27.9564957 356.967059,28.012833 C358.596794,28.2866269 359.196864,30.2579431 359.640097,31.8527927 C360.433411,34.718727 361.751486,37.4113023 363.526912,39.7928163 C365.859001,42.914067 371.089154,47.1168036 368.102443,51.0115221 C364.495206,55.6797084 362.204031,60.7175164 359.578726,65.9880493 Z" id="Path" fill="#BE6F72"></path>
                    <path d="M373.014197,48.941323 C377.645108,53.2198099 379.211853,59.8828037 378.990013,66.1165863 C378.768173,72.350369 377.007318,78.4274554 376.002105,84.5862964 C374.996892,90.7451373 374.79585,97.3195638 377.520323,102.981065 C378.45621,104.922735 379.731791,106.721334 380.383446,108.77201 C380.929823,110.798812 381.115114,112.903258 380.931113,114.992167 C380.919879,117.194283 380.492034,119.375143 379.669398,121.423523 C378.192775,124.639201 375.15634,126.873825 372.251622,128.917688 C366.324333,133.128046 360.279192,137.406533 353.31896,139.607092 C348.604859,141.099112 343.613458,141.58964 338.677517,141.855342 C335.335561,142.117084 331.974615,142.023432 328.65312,141.576014 C322.842934,140.624441 317.503519,137.846609 313.436279,133.659451 C312.727622,132.984543 312.143554,132.193867 311.710086,131.322634 C311.286566,130.188883 311.082023,128.987424 311.106959,127.779938 C310.940579,123.306148 310.968309,118.832359 311.190149,114.35857 C311.317438,110.095034 311.914814,105.857636 312.971801,101.720682 C314.295909,96.9516684 316.590567,92.482421 318.330625,87.8360388 C324.389631,71.682707 323.779571,53.3015644 332.195628,38.2178543 C334.011943,34.961299 337.048379,31.5344218 340.79193,32.0522005 C341.512067,32.0947794 342.189811,32.4010651 342.691435,32.910623 C343.121598,33.5307062 343.362157,34.2588411 343.384685,35.0089892 C344.278978,42.339645 345.547626,49.8610614 349.062404,56.4763651 C350.448904,59.0720713 352.528655,63.0235401 355.724538,63.7184536 C358.920421,64.413367 360.806062,61.4157011 362.518389,59.2900834 C365.527285,55.3921418 369.057755,51.9111336 373.014197,48.941323 Z" id="Path" fill="#E3E8F4"></path>
                    <path d="M395.497849,37.2843734 C396.450305,37.7841144 397.339508,38.3899158 398.147461,39.0895153 C400.244779,41.0168096 401.013795,43.9688274 400.999813,46.7647614 C400.985831,49.5606955 400.300707,52.315912 399.881244,55.0847011 C398.755683,62.5495736 399.713458,70.1908885 400.160886,77.7507685 C400.297247,78.9713479 400.221625,80.2054868 399.937172,81.4017697 C399.59461,82.5418593 398.888513,83.546224 398.434094,84.6523824 C397.098802,87.9233538 398.105514,91.65579 397.322516,95.0896314 C396.483589,98.7474189 393.610263,102.07268 394.148575,105.784758 C394.365298,107.237015 395.085377,108.573906 395.392983,110.01259 C395.70059,111.451275 395.43493,113.188554 394.155566,113.962186 C392.876202,114.735818 391.01658,114.17256 389.492529,114.600094 C388.873384,114.821967 388.270726,115.084992 387.688836,115.387298 C385.332849,116.418808 382.522443,116.065923 380.201411,114.939406 C377.926594,113.734191 375.881262,112.159634 374.154144,110.28404 C371.490551,107.637403 368.91085,104.739676 367.743343,101.217613 C366.037524,96.1143548 367.554584,90.5564179 369.407215,85.4938771 C371.259846,80.4313363 373.46902,75.3145055 373.140441,69.9330111 C372.958673,66.9199171 371.979925,64.0221893 371.392676,61.0633853 C370.665763,56.9639082 370.40553,52.7992604 370.616668,48.644552 C370.707552,45.6043131 370.917284,42.4690666 372.266558,39.7206363 C374.221089,35.9951919 377.992592,33.4897507 382.277755,33.0701135 C387.171497,32.5543587 391.366133,34.9770491 395.497849,37.2843734 Z" id="Path" fill="#3F3D56"></path>
                    <path d="M382.077792,102.644394 C382.124443,104.810191 382.505088,106.954989 383.205744,109 C384.393412,106.238459 384.532748,103.138494 384.691988,100.133287 C385.355489,89.7842763 387.60476,80.0241236 390,70 C388.254991,71.3536966 387.273009,74.7379382 386.436997,76.7684832 C383.119159,84.9567921 381.630066,93.7959386 382.077792,102.644394 Z" id="Path" fill="#000000" opacity="0.1"></path>
                    <path d="M335.097145,30.4178684 C331.803704,31.2874078 328.947566,33.2455831 325.756618,34.5259285 C322.442679,35.8952819 318.875923,36.4772571 315.397995,37.3194094 C307.34888,39.2775847 299.265601,42.913218 294.407434,49.6435898 C290.827013,54.5938022 289.344281,60.707965 286.891283,66.3154671 C284.841424,71.0191959 282.108278,75.4285138 280.598214,80.3239521 C278.623516,86.7119856 278.849001,93.5587524 279.334134,100.227503 C279.730441,105.704917 280.331733,111.243951 282.812063,116.098309 C284.110307,118.645306 285.900518,120.92528 287.198762,123.472277 C288.756655,126.532782 289.576599,129.908238 290.874843,133.05775 C292.173088,136.207263 294.079457,139.356776 297.09275,141 L302.080742,138.076431 C309.521731,133.71504 316.962721,129.346803 324.171394,124.60884 C330.457629,120.50078 336.798528,115.783358 340.146632,109.032446 C343.112095,103.068912 343.405908,96.0989029 342.640628,89.4780794 C341.875347,82.8572558 340.126133,76.3802144 339.224195,69.7799311 C338.075214,61.47266 338.248184,53.0353667 339.73666,44.7823853 C340.419946,41.0577441 342.237489,37.2098612 342.613296,33.4989135 C343.030101,29.5346355 337.946449,29.6647241 335.097145,30.4178684 Z" id="Path" fill="#3F3D56"></path>
                    <path d="M304.482563,139.669039 C308.252724,143.344984 313.67528,144.415108 318.389666,146.617895 C321.892425,148.293565 325.046402,150.653445 327.676805,153.566752 C329.126866,155.206682 330.529717,157.437265 329.801314,159.521922 C329.187567,161.314727 327.305859,162.231976 325.579274,162.899066 C323.434532,163.732929 321.040244,164.469507 318.902246,163.628696 C317.647774,163.135327 316.636103,162.148589 315.482798,161.446755 C312.656864,159.71649 309.095783,159.709541 306.195659,158.111304 C302.108509,155.859874 300.071678,150.90534 296.227329,148.23003 C294.123053,146.77077 291.216186,145.575567 291.000362,142.969746 C290.99045,142.027437 291.183962,141.094641 291.566898,140.238845 C292.342513,138.112495 293.664429,130.809247 296.618508,131.003815 C299.835622,131.219229 302.088276,137.910978 304.482563,139.669039 Z" id="Path" fill="#FBBEBE"></path>
                    <path d="M284.361734,108.276153 C285.596234,112.767177 288.463242,116.59615 291.438184,120.158937 C293.576635,122.718411 295.924208,125.503119 295.998413,128.854324 C296.065872,132.021246 293.974643,134.935634 291.276282,136.553221 C288.577922,138.170809 285.400603,138.689529 282.277251,138.894287 C279.778649,139.137679 277.257448,138.960087 274.816285,138.368741 C268.650531,136.676076 264.37363,131.236341 259.523328,127.031978 C256.642828,124.540757 253.404796,122.370323 251.198886,119.251177 C248.992977,116.132032 248.062042,111.654659 250.234222,108.508212 C251.01807,107.48828 251.92451,106.571176 252.932583,105.778107 C256.616534,102.546335 259.758169,98.7315604 262.23518,94.4822951 C263.233573,92.7691539 264.191491,90.9126821 265.87122,89.8820673 C268.279507,88.400985 271.369129,89.0766861 274.094473,89.8001641 C277.055924,90.5850694 285.400603,92.1207538 285.98075,95.9429015 C286.216857,97.5127122 284.294275,99.9561566 284.004201,101.641997 C283.635005,103.852808 283.75714,106.119064 284.361734,108.276153 Z" id="Path" fill="#FBBEBE"></path>
                    <path d="M300.187399,114.662782 C301.08126,116.303326 301.817015,118.027244 302.384472,119.810657 C304.465551,127.135151 300.746902,134.680762 298.972868,142.088174 C296.707562,151.575467 297.669634,161.498083 297.560463,171.261771 C297.512701,175.725567 297.041899,180.638506 293.869107,183.734141 C293.050322,184.521869 292.067779,185.18522 291.515099,186.180245 C291.173521,186.90934 290.919258,187.677183 290.757723,188.467422 C289.776278,191.926205 287.288484,194.741527 284.002596,196.111888 C280.716709,197.482249 276.992694,197.257528 273.890749,195.5017 C271.304753,194.043711 269.059917,191.514688 266.098644,191.438679 C265.167513,191.484205 264.240058,191.588052 263.321598,191.749624 C260.373971,192.04675 257.487753,190.941166 254.724354,189.856312 C254.064795,189.645375 253.449453,189.312711 252.90938,188.875106 C252.411285,188.412143 252.090595,187.790252 251.63344,187.292739 C249.948107,185.454706 247.068712,185.772561 244.63965,185.261229 C240.939972,184.422816 238.050715,181.49685 237.222821,177.750167 C236.73155,175.373162 237.147766,172.913238 237.557158,170.515502 L239.385778,159.832797 C240.153151,155.914399 240.684071,151.952293 240.975586,147.968499 C241.199762,143.466474 240.818725,138.95448 239.842933,134.556384 C239.037795,130.963236 237.83691,127.446097 237.400224,123.78385 C236.639305,117.220446 238.344303,110.607336 242.176471,105.258408 C243.124897,103.938617 244.366721,102.618827 245.976999,102.494448 C247.280232,102.37698 248.501586,103.08179 249.634239,103.75896 C259.473307,109.655408 269.380608,115.429781 279.35614,121.082079 C282.085424,122.636806 284.876117,124.198444 287.919268,124.965443 C288.833578,125.200379 290.143634,125.103641 290.273275,124.163894 C290.289541,123.805684 290.196641,123.451073 290.00717,123.148139 C288.301368,119.824477 285.831366,116.970689 283.866282,113.805954 C281.901197,110.64122 280.386445,106.896055 280.966417,103.219988 C281.75791,98.1343016 286.424985,94.7691804 290.239159,98.7561926 C294.517312,103.282177 297.38306,109.100313 300.187399,114.662782 Z" id="Path" fill="#F86D70"></path>
                    <path d="M268.430866,180.038598 C276.514794,180.552997 284.777906,181.10169 292.262259,184.188086 C294.667451,185.175733 297.217369,186.451444 299.746612,185.841023 C301.005489,185.459754 302.176445,184.835128 303.192446,184.002903 C306.30842,181.729097 309.252205,179.230383 312,176.526964 C311.724333,175.024918 309.677507,174.819158 308.147557,174.832875 C304.417055,174.855011 300.737012,173.974713 297.424119,172.267737 C296.335163,171.61595 295.180161,171.080297 293.978284,170.669669 C290.704741,169.771185 287.369173,171.48585 284.081847,172.322606 C279.216328,173.557165 274.088926,172.837006 269.120033,172.109988 L255.708844,170.141553 C254.461452,169.963227 253.055551,169.819196 252.063151,170.587365 C251.399764,171.211199 250.945061,172.022871 250.760625,172.912451 C249.120408,178.399378 249.906058,178.858908 255.36426,179.201841 L268.430866,180.038598 Z" id="Path" fill="#FBBEBE"></path>
                    <circle id="Oval" fill="#000000" opacity="0.1" cx="452" cy="63" r="22"></circle>
                    <circle id="Oval" fill="#FBBEBE" cx="452" cy="61" r="22"></circle>
                    <path d="M469.719373,34.1156566 C471.467716,35.1845744 473.298014,36.3346758 474.254139,38.1342462 C474.768272,39.3559748 475.159447,40.62498 475.421978,41.9228155 C476.617135,45.9819969 479.799667,49.5067194 479.990892,53.7350333 C480.202605,58.3692654 476.692259,62.3946203 472.717509,64.8233638 C471.810313,65.4857414 470.716501,65.8500742 469.589613,65.8652204 C468.435433,65.7908021 467.43833,65.07368 466.379763,64.6136394 C461.892803,62.6381712 456.873144,65.141333 452.119835,66.2914344 C447.180334,67.4731065 441.997556,67.1716557 437.231596,65.4254757 C434.670545,64.4783334 432.184619,63.0576199 430.579694,60.8588967 C428.974769,58.6601734 428.401094,55.5819609 429.766987,53.2208703 C430.449934,52.0166465 431.583626,50.9274329 431.508502,49.5540765 C431.467525,48.7287096 430.975803,47.9845264 430.825555,47.1726901 C430.607012,45.8805173 431.289959,44.6221711 431.986564,43.5194268 C435.147313,38.4809284 439.141402,34.0052099 443.801543,30.2797302 C445.167437,29.1702206 446.745044,28.0877722 448.534364,28.0065886 C452.126664,27.8509867 455.213584,30.5029852 458.908326,30.5165158 C463.101619,30.5300464 466.113414,31.9101681 469.719373,34.1156566 Z" id="Path" fill="#3F3D56"></path>
                    <circle id="Oval" fill="#000000" opacity="0.1" cx="370.5" cy="33.5" r="22.5"></circle>
                    <circle id="Oval" fill="#BE6F72" cx="370.5" cy="32.5" r="22.5"></circle>
                    <path d="M384.306234,45.6386639 C387.559777,47.3980502 391.574342,47.2160447 395.204905,46.4138724 C397.263956,46.0402745 399.216166,45.2449601 400.930024,44.0815059 C402.6547,42.8916463 403.71777,41.0028922 403.813529,38.9583887 C403.813529,36.7001725 402.277522,34.6644075 402.089012,32.4061914 C401.858611,29.5615131 403.77862,26.9325451 403.981094,24.0743849 C404.183568,21.2162248 402.72436,18.6411843 401.300063,16.1874808 C398.849432,11.9743909 396.301056,7.70737357 392.572747,4.48520247 C388.844438,1.26303137 383.677867,-0.792956461 378.79057,0.292335478 C376.388813,0.824870032 374.161602,2.07194462 371.710972,2.31461859 C369.532634,2.51010596 367.382224,1.87645725 365.210868,1.6068195 C363.039511,1.33718176 360.602845,1.50570535 359.045892,2.95500825 C358.194106,3.7639215 357.649521,4.90314098 356.651117,5.49634403 C355.974095,5.79784806 355.273795,6.04801845 354.556561,6.24458878 C352.036112,7.22202562 350.884106,9.96558972 349.990429,12.4327751 L344,29.0087557 C346.003792,30.3569445 348.419513,30.9703704 350.611814,32.0084757 C352.804116,33.046581 354.933581,34.7048532 355.380419,37.0237378 C355.72253,38.7831241 355.073218,40.8054072 356.134459,42.274933 C357.104937,43.6231217 359.080801,43.8523138 360.756446,43.6231217 C362.43209,43.3939296 364.114717,42.8344313 365.790361,43.0838462 C369.979473,43.6972721 371.536426,46.1779394 375.411354,43.0838462 C379.286282,39.9897531 380.703598,43.6837902 384.306234,45.6386639 Z" id="Path" fill="#3F3D56"></path>
                    <circle id="Oval" fill="#000000" opacity="0.1" cx="274.5" cy="84.5" r="20.5"></circle>
                    <circle id="Oval" fill="#FBBEBE" cx="276.5" cy="84.5" r="20.5"></circle>
                    <path d="M291.01975,63.0866888 C286.09743,59.3040095 280.566718,56.3905103 274.665795,54.471662 C270.889155,53.2429162 266.781714,52.4007421 262.94994,53.532845 C257.753614,55.0170042 250.799909,57.2328885 247.581495,61.5887234 C245.996409,63.7286739 244.390648,65.9307521 243.625671,68.4917897 C242.095718,73.6414772 244.273489,79.1294149 244.128764,84.5000005 C243.956472,90.7610817 240.641574,96.4768206 237.023442,101.58509 C233.405311,106.693359 232.674793,114.010609 230.538372,119.905828 C229.807854,121.928426 229.573537,124.737974 231.454966,125.752725 C233.108969,126.670833 235.107556,125.524924 236.637508,124.420433 L245.8379,117.758974 C246.553026,117.170158 247.377519,116.729076 248.263771,116.461198 C250.158983,116.019401 252.012845,117.206729 253.597931,118.331929 L272.894633,132 C273.666856,130.421007 273.699674,128.58017 272.984225,126.974568 C274.796737,127.533716 276.113048,129.045488 277.705026,130.122366 C279.297004,131.199244 281.715983,131.551301 282.873785,130.046432 C284.031587,128.541564 283.156344,126.518965 281.8676,125.304026 C280.578856,124.089086 278.883503,123.364264 277.622325,122.114809 C275.120646,119.622802 274.865654,115.688054 273.287459,112.540256 C272.157224,110.331275 270.330929,108.481253 269.531494,106.127307 C268.228967,102.282299 269.931211,98.1404596 271.598998,94.4404161 C273.590693,90.0500659 275.844272,85.3628838 280.082655,83.0710658 C281.509233,82.2979224 283.087427,81.84232 284.548463,81.1382072 C288.18727,79.3917315 292.728887,75.2706008 294.50694,71.5774604 C296.064459,68.2985039 293.666155,65.1299964 291.01975,63.0866888 Z" id="Path" fill="#3F3D56"></path>
                    <path d="M260.123813,132.673134 C262.105647,133.93011 264.342979,134.73375 266.290286,136.045676 C268.237593,137.357601 269.943213,139.34953 269.998456,141.684894 C270.053698,143.917228 268.617387,145.874813 267.236318,147.646942 L250.414899,169.606238 L258.991337,171.866047 C257.610268,173.761813 257.258095,176.179602 256.539939,178.405067 C255.821784,180.630532 254.468336,182.945291 252.175762,183.529132 C250.104159,184.058023 247.93588,182.972766 245.795224,183.096403 C244.2139,183.192565 242.722345,183.934386 241.141022,183.996205 C239.103945,184.071761 237.211881,183.007109 235.513166,181.880639 C231.729037,179.359819 227.97253,175.746873 228.000151,171.213518 C228.08979,169.68029 228.399047,168.167646 228.918562,166.721376 C231.397581,158.678106 233.966369,150.442511 239.103945,143.752379 C241.866083,140.180645 245.242796,137.165277 248.61951,134.170515 C249.387274,133.401615 250.290831,132.779932 251.284972,132.336567 C253.494683,131.512321 255.904648,132.528891 258.190317,133.188288 C260.475986,133.847685 263.355514,133.943848 264.674435,132" id="Path" fill="#000000" opacity="0.1"></path>
                    <path d="M260.116627,129.72093 C262.098438,130.970542 264.335744,131.780729 266.283029,133.092135 C268.230314,134.403541 269.935914,136.39468 269.998062,138.722254 C270.060209,141.049827 268.617009,142.917379 267.235955,144.688806 L250.407823,166.618806 L258.984163,168.877719 C257.60311,170.772735 257.250941,173.1827 256.532794,175.41415 C255.814646,177.645599 254.461214,179.952575 252.168666,180.536184 C250.097086,181.064866 247.928833,179.980039 245.7882,180.103626 C244.206895,180.192884 242.715357,180.941278 241.134051,180.996206 C239.096998,181.071732 237.204955,180.007503 235.50626,178.881479 C231.722174,176.368523 227.96571,172.750142 228.000236,168.225449 C228.082955,166.692567 228.390017,165.179868 228.911731,163.735086 C231.390722,155.688136 233.95948,147.455804 239.096998,140.775187 C241.859104,137.198002 245.242684,134.183829 248.612454,131.16279 C249.383853,130.398532 250.286553,129.777676 251.277887,129.329568 C253.487572,128.505648 255.897509,129.521816 258.183152,130.187818 C260.468795,130.85382 263.348291,130.943078 264.667197,129" id="Path" fill="#F86D70"></path>
                    <g id="Group" opacity="0.1" transform="translate(429.000000, 43.000000)" fill="#000000">
                        <path d="M2.95578947,13.5071429 C4.56368421,15.8285714 7.06105263,17.3357143 9.62,18.3285714 C14.3933123,20.179501 19.5877866,20.4979041 24.5357895,19.2428571 C29.3252632,18.0285714 34.3268421,15.3857143 38.8221053,17.4714286 C39.8826316,17.9642857 40.8747368,18.7142857 42.0310526,18.8 C43.1623451,18.7786828 44.2595101,18.3918947 45.1715789,17.6928571 C47.9426316,15.9071429 50.4878947,13.3071429 51.7057895,10.2428571 C51.7057895,10.4 51.7057895,10.5571429 51.7468421,10.7214286 C51.9589474,15.6142857 48.4421053,19.8642857 44.46,22.4285714 C43.5511251,23.1279147 42.4552893,23.5125799 41.3263158,23.5285714 C40.17,23.45 39.1710526,22.6928571 38.1105263,22.2071429 C33.6152632,20.1214286 28.5863158,22.7642857 23.8242105,23.9785714 C18.8755691,25.2261897 13.6832003,24.9079156 8.90842105,23.0642857 C6.34263158,22.0642857 3.85210526,20.5642857 2.24421053,18.2428571 C0.636315789,15.9214286 0.0615789474,12.6714286 1.43,10.1785714 L1.53263158,10 C1.75414411,11.2640959 2.24007905,12.4616041 2.95578947,13.5071429 Z" id="Path"></path>
                        <path d="M3.86578947,1.57142857 C3.92052632,2.67142857 3.28421053,3.59285714 2.67526316,4.52857143 C2.59041647,4.29657884 2.52405096,4.05767306 2.47684211,3.81428571 C2.27157895,2.53571429 2.86,1.29285714 3.51,0.171428571 C3.69645517,0.616363384 3.81644637,1.08851811 3.86578947,1.57142857 Z" id="Path"></path>
                    </g>
                    <path d="M351.475495,10.0086885 L345.61263,27.127569 C347.573751,28.5204804 349.93803,29.1612196 352.083648,30.2267968 C354.229265,31.292374 356.313384,33.0126195 356.750707,35.408427 C357.085533,37.2261763 356.450047,39.3155434 357.48869,40.8407813 C358.438501,42.2336926 360.37229,42.463523 362.012253,42.2336926 C363.652215,42.0038623 365.29901,41.4188395 366.938973,41.6765281 C371.038878,42.3103028 372.562677,44.8732596 376.35509,41.7113509 C380.147502,38.5494421 381.520971,42.3033382 385.04689,44.3230597 C388.23115,46.1477735 392.160226,45.9597305 395.713478,45.1239837 C397.728137,44.7400971 399.638737,43.9207915 401.316682,42.7212116 C401.555267,42.5223903 401.783359,42.3108361 402,42.0874369 C401.476827,43.2288578 400.688809,44.2232571 399.704053,44.9846926 C398.02669,46.1867412 396.116052,47.0084381 394.100848,47.3944292 C390.547597,48.2232114 386.584354,48.4112545 383.43426,46.5935052 C379.908341,44.5737837 378.459708,40.8895332 374.74246,43.9817964 C371.025212,47.0740596 369.412582,44.5807483 365.326343,43.9817964 C363.686381,43.7241078 362.046418,44.302166 360.399623,44.5389609 C358.752828,44.7757558 356.825872,44.5389609 355.87606,43.1460496 C354.837418,41.6277762 355.472903,39.5384092 355.138077,37.7206599 C354.700754,35.3248523 352.616635,33.6046068 350.471018,32.5390296 C348.325401,31.4734524 345.961122,30.8257487 344,29.4398019 L349.890198,12.2721695 C350.573516,10.3847746 351.325165,8.34415945 352.6918,7 C352.218298,7.97288694 351.811879,8.97821749 351.475495,10.0086885 Z" id="Path" fill="#000000" opacity="0.1"></path>
                    <g id="Group" opacity="0.1" transform="translate(230.000000, 61.000000)" fill="#000000">
                        <path d="M44.6857895,67.3097143 C46.1978947,67.9954286 48.1068421,68.0982857 49.0647368,66.816 C50.1389474,65.4445714 49.3452632,63.3188571 48.0657895,62.1051429 C46.7863158,60.8914286 45.1031579,60.1782857 43.8510526,58.9371429 C41.3673684,56.4685714 41.1142105,52.56 39.5473684,49.4331429 C38.4252632,47.232 36.6121053,45.3942857 35.8184211,43.056 C34.5252632,39.2434286 36.2152632,35.1222857 37.8710526,31.4537143 C39.8484211,27.0925714 42.0857895,22.4365714 46.2936842,20.16 C47.71,19.392 49.2768421,18.9394286 50.7273684,18.24 C54.34,16.5051429 58.8489474,12.4045714 60.6142105,8.736 C62.0989474,5.64342857 60.0052632,2.64 57.5147368,0.603428571 C58.7257895,1.392 59.9094737,2.22171429 61.0589474,3.10628571 C63.6931579,5.16342857 66.0673684,8.28342857 64.48,11.5268571 C62.7147368,15.1954286 58.2057895,19.2891429 54.5931579,21.024 C53.1426316,21.7097143 51.5757895,22.176 50.1594737,22.944 C45.9515789,25.2205714 43.7142105,29.8765714 41.7368421,34.2377143 C40.0742105,37.9131429 38.3842105,42.0274286 39.6842105,45.8468571 C40.4778947,48.1851429 42.2910526,50.0228571 43.4131579,52.2171429 C45.0005263,55.344 45.2331579,59.2525714 47.7168421,61.728 C48.9689474,62.9691429 50.6521053,63.6822857 51.9315789,64.896 C53.2110526,66.1097143 53.9842105,68.208 52.9305263,69.6068571 C51.8768421,71.0057143 49.3726316,70.7177143 47.7989474,69.6822857 C46.7384211,68.9622857 45.7736842,68.016 44.6857895,67.3097143 Z" id="Path"></path>
                        <path d="M3.18842105,61.2274286 L12.3226316,54.6171429 C13.0323426,54.030252 13.8508487,53.5898041 14.7310526,53.3211429 C16.6126316,52.8891429 18.4531579,54.0685714 20.0268421,55.1862857 L39.1847368,68.7634286 C39.9516444,67.1925806 39.9842201,65.361824 39.2736842,63.7645714 C41.0321053,64.3131429 42.3115789,65.7805714 43.8373684,66.8091429 C43.6156108,66.7083672 43.3869598,66.6235804 43.1531579,66.5554286 C43.8634603,68.1503491 43.8308785,69.9789405 43.0642105,71.5474286 L23.9063158,57.9702857 C22.3326316,56.8525714 20.4852632,55.6731429 18.6105263,56.112 C17.7306491,56.3780964 16.9120865,56.8162441 16.2021053,57.4011429 L7.06789474,64.0182857 C5.54894737,65.1154286 3.56473684,66.2537143 1.92263158,65.3417143 C1.00846259,64.7787297 0.463367716,63.7697869 0.492631579,62.6948571 C1.46175478,62.3488534 2.37123677,61.8537851 3.18842105,61.2274286 Z" id="Path"></path>
                    </g>
                    <path d="M462,166.098477 C462,166.098477 422.799127,169.3002 415,163.636149 L450.8623,158 L462,166.098477 Z" id="Path" fill="#E3E8F4"></path>
                    <path d="M462,166.098477 C462,166.098477 422.799127,169.3002 415,163.636149 L450.8623,158 L462,166.098477 Z" id="Path" fill="#000000" opacity="0.1"></path>
                    <path d="M462,166 L450.959766,159.164825 C450.959766,159.164825 418.024789,168.421913 409,164.600673 L418.182998,152 L450.815315,158.22297 L462,166 Z" id="Path" fill="#E3E8F4"></path>
                    <path d="M411.919622,75.1800226 C410.686714,76.7199776 409.697782,78.4363232 408.986728,80.2702205 C408.666269,81.2414219 408.506039,82.2539511 408.234346,83.2389285 C407.469903,85.6917883 406.292286,87.9995112 404.751099,90.0648907 C401.316618,95.0035536 397.025257,99.7700176 396.161412,105.700546 C395.743422,108.627926 396.203211,111.603522 396.788397,114.503351 C397.105169,116.415555 397.657299,118.282274 398.432489,120.061929 C399.317234,121.949229 400.633901,123.609226 401.644043,125.434533 C402.56675,127.226173 403.344776,129.087125 403.970852,131 C405.162122,129.82216 405.865738,128.244818 406.820148,126.867228 C407.774558,125.489637 409.195722,124.249805 410.874647,124.229141 C412.811333,124.229141 414.40666,125.813371 416.322446,126.061337 C416.621444,126.120933 416.931572,126.092187 417.214157,125.978682 C417.910806,125.654948 417.966538,124.725074 417.910806,123.981175 C417.360453,118.78077 414.350928,113.649244 415.772093,108.607262 C417.081794,103.944118 421.763278,101.030513 424.22245,96.8495252 C426.005872,93.8119376 426.535326,90.2302016 427.009048,86.744897 C427.601199,82.577685 428.200318,78.3760332 427.935591,74.1812693 C427.803228,72.0666675 426.103403,58.7040372 422.996347,60.1022918 C421.91654,60.5844486 420.976064,62.6301708 420.300314,63.5462687 L417.513716,67.4517385 L411.919622,75.1800226 Z" id="Path" fill="#3F3D56"></path>
                    <polygon id="Path" fill="#E3E8F4" points="331 160.110656 309.133496 178 281 172.945355 299.943719 158"></polygon>
                    <polygon id="Path" fill="#000000" opacity="0.1" points="331 159.110656 309.133496 177 281 171.945355 299.943719 157"></polygon>
                    <polygon id="Path" fill="#E3E8F4" points="333 158.117486 310.699198 176 282 170.952186 301.3269 156"></polygon>
                    <polygon id="Path" fill="#000000" opacity="0.1" points="333 155.110656 310.692266 173 282 167.945355 301.3269 153"></polygon>
                    <polygon id="Path" fill="#E3E8F4" points="333 155.110656 311.133496 173 283 167.945355 301.943719 153"></polygon>
                    <path d="M622.747226,399.366581 C623.791768,398.840346 625.019976,398.882841 626.02827,399.480103 C627.036565,400.077365 627.694568,401.152166 627.786067,402.351333 L629,418.651594 L621.797781,420 L618,408.215494 L622.747226,399.366581 Z" id="Path" fill="#3F3D56"></path>
                    <path d="M368.767957,293.836511 L257.234394,350.457675 C254.625934,351.788829 252.988459,354.47531 253.000061,357.40462 C253.011664,360.33393 254.67037,363.007344 257.289293,364.317778 L497.505398,484.912346 C506.184078,489.260107 516.456462,489.002754 524.906709,484.225862 L626.085005,427.151619 C628.586575,425.723775 630.09206,423.027581 629.99563,420.148026 C629.8992,417.26847 628.216713,414.679112 625.625229,413.421948 L375.623431,293.760998 C373.450408,292.720427 370.917548,292.748326 368.767957,293.836511 Z" id="Path" fill="#3F3D56"></path>
                    <path d="M254.777355,340 L251.276477,342.585013 L251.001359,354.962984 C250.956071,356.932033 252.045825,358.753848 253.807564,359.654304 L498.683342,484.596589 C499.813393,485.176265 501.165578,485.128555 502.25146,484.470691 C503.337343,483.812827 503.999975,482.639895 504,481.375581 L504,463.396749 L254.777355,340 Z" id="Path" fill="#3F3D56"></path>
                    <path d="M368.775032,279.840069 L257.24449,336.456128 C254.634162,337.783458 252.992772,340.467565 253.000024,343.396954 C253.007275,346.326342 254.661934,349.002283 257.278801,350.316662 L497.508986,470.914978 C506.18825,475.259205 516.458536,475.001889 524.909556,470.228474 L626.085111,413.145591 C628.586613,411.717703 630.092057,409.021425 629.99563,406.14178 C629.899203,403.262135 628.216762,400.672696 625.625347,399.415493 L375.630321,279.757689 C373.456295,278.719236 370.923497,278.749673 368.775032,279.840069 Z" id="Path" fill="#E3E8F4"></path>
                    <polygon id="Path" fill="#3F3D56" points="390.909091 289 268 351.395295 479.247426 457 606 392.67651"></polygon>
                    <ellipse id="Oval" fill="#3F3D56" cx="556" cy="429.5" rx="13" ry="7.5"></ellipse>
                    <circle id="Oval" fill="#3F3D56" cx="320" cy="309" r="1"></circle>
                    <circle id="Oval" fill="#3F3D56" cx="316" cy="320" r="1"></circle>
                    <path d="M322,317 L336,310" id="Path" stroke="#3F3D56"></path>
                    <path d="M411.626806,357.671856 L458.596466,357.680265 C465.419513,357.681486 470.950381,363.212354 470.951603,370.035402 L470.951603,370.035402 C470.952824,376.855292 465.425201,382.384895 458.605312,382.386116 C458.603838,382.386116 458.602364,382.386116 458.60089,382.386116 L411.63123,382.377707 C404.808182,382.376485 399.277314,376.845618 399.276093,370.02257 L399.276093,370.02257 C399.274871,363.20268 404.802494,357.673077 411.622384,357.671856 C411.623858,357.671856 411.625332,357.671856 411.626806,357.671856 Z" id="Rectangle" fill="#34569A" transform="translate(435.113848, 370.028986) rotate(-30.000000) translate(-435.113848, -370.028986) "></path>
                    <path d="M448.010141,376.201171 L494.979801,376.20958 C501.802848,376.210802 507.333716,381.74167 507.334938,388.564717 L507.334938,388.564717 C507.336159,395.384607 501.808536,400.91421 494.988647,400.915431 C494.987173,400.915432 494.985699,400.915432 494.984225,400.915431 L448.014565,400.907022 C441.191517,400.905801 435.66065,395.374933 435.659428,388.551885 L435.659428,388.551885 C435.658207,381.731996 441.18583,376.202393 448.005719,376.201171 C448.007193,376.201171 448.008667,376.201171 448.010141,376.201171 Z" id="Rectangle" fill="#34569A" transform="translate(471.497183, 388.558301) rotate(-30.000000) translate(-471.497183, -388.558301) "></path>
                    <path d="M378.675991,336.401777 L425.64565,336.410186 C432.468698,336.411408 437.999566,341.942275 438.000788,348.765323 L438.000788,348.765323 C438.002009,355.585213 432.474386,361.114816 425.654496,361.116037 C425.653022,361.116037 425.651548,361.116037 425.650074,361.116037 L378.680415,361.107628 C371.857367,361.106406 366.326499,355.575539 366.325277,348.752491 L366.325277,348.752491 C366.324056,341.932601 371.851679,336.402998 378.671569,336.401777 C378.673043,336.401777 378.674517,336.401777 378.675991,336.401777 Z" id="Rectangle" fill="#34569A" transform="translate(402.163032, 348.758907) rotate(-30.000000) translate(-402.163032, -348.758907) "></path>
                </g>
            </g>
        </g>
    </g>
</svg>